<svg width="13" height="24" viewBox="0 0 13 24" fill="none" xmlns="http://www.w3.org/2000/svg">
<path d="M10.3333 23.6666C10.7227 23.6674 11.1001 23.5317 11.4 23.2833C11.5688 23.1434 11.7083 22.9715 11.8105 22.7776C11.9128 22.5837 11.9758 22.3715 11.9959 22.1532C12.016 21.9349 11.9929 21.7148 11.9278 21.5055C11.8627 21.2961 11.757 21.1017 11.6167 20.9333L4.15 11.9999L11.35 3.04994C11.4884 2.87946 11.5918 2.6833 11.6542 2.47274C11.7166 2.26217 11.7368 2.04135 11.7135 1.82297C11.6903 1.60459 11.6241 1.39295 11.5188 1.20023C11.4135 1.0075 11.2712 0.837479 11.1 0.699942C10.9276 0.548214 10.7256 0.433768 10.5068 0.363786C10.2881 0.293805 10.0572 0.269799 9.82871 0.293273C9.60022 0.316748 9.37905 0.387198 9.17908 0.500201C8.97911 0.613204 8.80465 0.76632 8.66666 0.949942L0.616663 10.9499C0.371527 11.2482 0.237517 11.6222 0.237517 12.0083C0.237517 12.3943 0.371527 12.7684 0.616663 13.0666L8.95 23.0666C9.11719 23.2683 9.32958 23.4277 9.56993 23.532C9.81028 23.6362 10.0718 23.6824 10.3333 23.6666Z" fill="#AAAAAA"/>
</svg>
