<svg width="13" height="24" viewBox="0 0 13 24" fill="none" xmlns="http://www.w3.org/2000/svg">
<path d="M2.66667 23.6666C2.27725 23.6674 1.89986 23.5317 1.6 23.2833C1.43124 23.1434 1.29174 22.9715 1.18948 22.7776C1.08723 22.5837 1.02424 22.3715 1.00411 22.1532C0.983983 21.9349 1.00712 21.7148 1.07219 21.5055C1.13727 21.2961 1.243 21.1017 1.38334 20.9333L8.85 11.9999L1.65 3.04994C1.51156 2.87946 1.40817 2.6833 1.34579 2.47274C1.2834 2.26217 1.26325 2.04135 1.28648 1.82297C1.30971 1.60459 1.37587 1.39295 1.48116 1.20023C1.58645 1.0075 1.72879 0.837479 1.9 0.699942C2.07245 0.548214 2.27439 0.433768 2.49316 0.363786C2.71193 0.293805 2.94281 0.269799 3.17129 0.293273C3.39978 0.316748 3.62095 0.387198 3.82092 0.500201C4.02089 0.613204 4.19535 0.76632 4.33334 0.949942L12.3833 10.9499C12.6285 11.2482 12.7625 11.6222 12.7625 12.0083C12.7625 12.3943 12.6285 12.7684 12.3833 13.0666L4.05 23.0666C3.88281 23.2683 3.67042 23.4277 3.43007 23.532C3.18972 23.6362 2.92818 23.6824 2.66667 23.6666Z" fill="#AAAAAA"/>
</svg>
