<svg width="103" height="103" viewBox="0 0 103 103" fill="none" xmlns="http://www.w3.org/2000/svg">
<circle cx="51.5" cy="51.5" r="50" stroke="#60DAD0" stroke-width="3" stroke-dasharray="5 5"/>
<path d="M69.3308 69.0765C69.3308 71.1582 67.6429 72.8468 65.5611 72.8468H25.227C23.1453 72.8468 21.4595 71.1582 21.4595 69.0765V48.7209C21.4595 46.6392 23.1453 44.9506 25.227 44.9506H65.5611C67.6429 44.9506 69.3308 46.6392 69.3308 48.7209V69.0765Z" fill="#9AE0FF"/>
<path d="M45.394 77.1967C52.8039 77.1967 58.8108 71.1898 58.8108 63.78C58.8108 56.3701 52.8039 50.3632 45.394 50.3632C37.9841 50.3632 31.9772 56.3701 31.9772 63.78C31.9772 71.1898 37.9841 77.1967 45.394 77.1967Z" fill="#F6DABB"/>
<path d="M49.5674 68.9118C49.5674 70.9816 47.8901 72.6604 45.8196 72.6604C43.7505 72.6604 42.071 70.9816 42.071 68.9118C42.071 66.8434 43.7505 65.1647 45.8196 65.1647C47.8901 65.1654 49.5674 66.8434 49.5674 68.9118Z" fill="#FF889C"/>
<path d="M80.5603 32.0711C80.5603 40.5043 72.8437 47.3418 63.3267 47.3418C61.0958 47.3418 57.2805 46.6821 55.3281 45.9999L48.3197 48.3777L49.6426 41.3539C47.4146 38.7834 46.0924 35.5651 46.0924 32.0718C46.0924 23.6393 53.8104 16.8032 63.3267 16.8032C72.8451 16.8025 80.5603 23.6386 80.5603 32.0711Z" fill="#F4F2E8"/>
<path d="M40.5743 68.9126C40.5743 71.8046 42.9276 74.1578 45.8195 74.1578C48.7108 74.1578 51.0633 71.8046 51.0633 68.9126C51.0633 66.0214 48.7108 63.6696 45.8195 63.6696C42.9269 63.6696 40.5743 66.0214 40.5743 68.9126ZM45.8195 66.6621C47.0608 66.6621 48.0715 67.672 48.0715 68.9126C48.0715 70.1546 47.0601 71.166 45.8195 71.166C44.5775 71.166 43.5662 70.1546 43.5662 68.9126C43.5662 67.672 44.5768 66.6621 45.8195 66.6621Z" fill="#3B6A75"/>
<path d="M42.8833 59.6586C42.2975 59.0728 41.3508 59.0735 40.7678 59.6593C39.9576 60.4709 38.5503 60.4695 37.7387 59.6586C37.1549 59.0742 36.2062 59.0742 35.6218 59.6586C35.038 60.2438 35.038 61.1911 35.6218 61.7749C36.5937 62.7461 37.8829 63.2806 39.2536 63.2806C40.6257 63.2806 41.9142 62.7447 42.884 61.7749C43.4691 61.1897 43.4677 60.2424 42.8833 59.6586Z" fill="#3B6A75"/>
<path d="M51.3889 63.2799C52.7604 63.2799 54.0495 62.744 55.0215 61.7741C55.6052 61.189 55.6038 60.2416 55.0201 59.6579C54.4335 59.0721 53.4855 59.0728 52.9024 59.6586C52.0922 60.4702 50.6849 60.4688 49.8747 59.6579C49.291 59.0735 48.3415 59.0735 47.7564 59.6579C47.1727 60.2416 47.1727 61.1904 47.7564 61.7741C48.7277 62.7461 50.0182 63.2799 51.3889 63.2799Z" fill="#3B6A75"/>
<path d="M69.3131 50.2386C68.4861 50.2386 67.8158 50.9075 67.8158 51.7332V68.3007C67.8158 69.881 66.533 71.1659 64.952 71.1659C64.1263 71.1659 63.4568 71.8341 63.4568 72.6611C63.4568 73.4875 64.1263 74.1578 64.952 74.1578C68.1815 74.1578 70.8083 71.5295 70.8083 68.3007V51.7332C70.8083 50.9082 70.1402 50.2386 69.3131 50.2386Z" fill="#3B6A75"/>
<path d="M63.3267 15.3073C52.9988 15.3073 44.5958 22.8277 44.5958 32.0718C44.5958 35.5939 45.7837 38.9318 48.042 41.7681L47.6889 43.6424H25.7988C22.5693 43.6424 19.9424 46.2692 19.9424 49.4974V68.3C19.9424 71.5296 22.5693 74.1578 25.7988 74.1578C26.6245 74.1578 27.2961 73.4875 27.2954 72.6605C27.2954 71.8341 26.6245 71.1645 25.7988 71.1645C24.2199 71.1645 22.935 69.8803 22.935 68.3V49.4974C22.935 47.9192 24.2199 46.635 25.7988 46.635H47.1263L46.6937 48.9333C46.2647 48.8961 45.8329 48.8672 45.394 48.8672C37.1704 48.8672 30.4813 55.5577 30.4813 63.7813C30.4813 72.0029 37.1704 78.6933 45.394 78.6933C53.617 78.6933 60.306 72.0029 60.306 63.7813C60.306 57.0445 55.8148 51.3435 49.6722 49.4995L55.338 47.5781C57.5787 48.2666 61.15 48.8391 63.3267 48.8391C73.6553 48.8391 82.0576 41.3173 82.0576 32.0718C82.0576 22.8277 73.6553 15.3073 63.3267 15.3073ZM57.3128 63.7799C57.3128 70.3522 51.9664 75.6994 45.3948 75.6994C38.8217 75.6994 33.4746 70.3515 33.4746 63.7799C33.4746 57.2055 38.8224 51.8583 45.3948 51.8583C51.9664 51.8583 57.3135 57.2062 57.3128 63.7799ZM63.3267 45.8452C61.3202 45.8452 57.6715 45.2333 55.8211 44.587L55.3344 44.4175L50.2658 46.137L51.2476 40.9193L50.7722 40.3735C48.689 37.9703 47.589 35.1002 47.589 32.0711C47.589 24.4762 54.648 18.2991 63.3267 18.2991C72.0047 18.2991 79.0644 24.4762 79.0644 32.0718C79.0644 39.6667 72.0047 45.8452 63.3267 45.8452Z" fill="#3B6A75"/>
<path d="M56.7314 34.5675L59.5961 35.4324L62.5161 25.7602L59.6513 24.8954L56.7314 34.5675Z" fill="#3B6A75"/>
<path d="M56.2122 37.0652C55.9309 37.3458 55.7677 37.7312 55.7677 38.1223C55.7677 38.5203 55.9309 38.9072 56.2122 39.1871C56.4865 39.4628 56.8712 39.6252 57.2699 39.6252C57.661 39.6252 58.0457 39.4628 58.327 39.1871C58.6006 38.9072 58.7652 38.521 58.7652 38.1223C58.7652 37.7312 58.6006 37.3458 58.327 37.0652C57.7651 36.5103 56.7671 36.5103 56.2122 37.0652Z" fill="#3B6A75"/>
<path d="M64.7826 34.5658L67.6473 35.4313L70.5693 25.7591L67.7045 24.8937L64.7826 34.5658Z" fill="#3B6A75"/>
<path d="M64.267 37.0652C63.9864 37.3458 63.8225 37.7312 63.8225 38.1223C63.8225 38.5203 63.9864 38.9072 64.267 39.1871C64.5413 39.4628 64.9267 39.6252 65.324 39.6252C65.7158 39.6252 66.1005 39.4628 66.3832 39.1871C66.6575 38.9072 66.8207 38.521 66.8207 38.1223C66.8207 37.7312 66.6575 37.3458 66.3832 37.0652C65.8206 36.5103 64.8212 36.5103 64.267 37.0652Z" fill="#3B6A75"/>
</svg>
