<svg width="103" height="103" viewBox="0 0 103 103" fill="none" xmlns="http://www.w3.org/2000/svg">
<circle cx="51.5" cy="51.5" r="50" stroke="#60DAD0" stroke-width="3" stroke-dasharray="5 5"/>
<g clip-path="url(#clip0)">
<path d="M77.5353 51.1192C77.5353 66.4504 65.1066 78.8804 49.7741 78.8804C34.4443 78.8804 22.0142 66.4504 22.0142 51.1192C22.0142 35.7894 34.4443 23.3594 49.7741 23.3594C65.1066 23.3601 77.5353 35.7901 77.5353 51.1192Z" fill="#9AE0FF"/>
<path d="M38.7408 45.0645C37.6288 44.7171 36.3228 44.4653 34.9837 44.3577L31.622 44.4063C29.6443 44.6292 27.8776 45.2179 26.5758 46.0984C24.8211 47.3095 23.8991 48.8715 23.6445 51.0855C28.1013 53.6173 34.713 51.0018 38.7408 45.0645Z" fill="#99B3B7"/>
<path d="M58.2418 52.1897L58.2375 51.9245C58.1377 49.2612 57.2114 47.4579 55.2338 46.0914C53.5494 44.9577 51.0168 44.3015 48.2915 44.3015H48.1832C45.9073 44.3015 43.5443 44.7558 41.862 45.5189L41.184 45.8192C41.0075 45.8959 40.8056 45.8973 40.6277 45.8185L40.07 45.5696C36.8151 50.5327 31.8463 53.4268 27.3973 53.4268C26.0519 53.4268 24.7564 53.1588 23.5685 52.6089C23.5685 52.6138 23.5685 52.6194 23.5685 52.6236C23.6044 56.7506 24.4547 58.2866 25.6341 60.4077L25.8177 60.7418C27.2067 63.1421 28.6935 66.1649 28.6541 71.5247C28.6491 78.3446 29.958 81.5727 30.7386 82.8872C31.8667 84.7615 32.0763 84.7615 32.9575 84.7615C33.9977 84.7615 34.1208 83.3528 34.1222 83.3387C34.1967 82.582 34.2101 81.7134 34.2277 80.7119C34.2657 78.3003 34.3149 75.3007 35.2517 72.1387L35.2742 72.0585C35.6505 70.827 36.1203 69.2918 37.062 67.8739C37.8082 66.7465 39.3463 65.61 41.0989 65.61C42.1264 65.61 43.597 66.006 44.7673 67.8908C45.6373 69.2967 46.1451 70.7609 46.5642 72.1338C47.5073 75.2965 47.8977 78.8313 47.6353 81.8358C47.5313 83.0426 47.7036 83.9309 48.1361 84.4007C48.461 84.758 48.8436 84.7622 48.8591 84.7622C49.6292 84.7622 49.9485 84.7622 51.0752 82.8844C51.8544 81.5734 53.1654 78.3467 53.1604 71.5212C53.1246 66.1719 54.5466 63.2568 56.0081 60.7284L56.1839 60.4077C57.3612 58.2859 58.2108 56.7527 58.2474 52.618C58.2481 52.4837 58.2453 52.3402 58.2418 52.1897Z" fill="#F4F2E8"/>
<path d="M51.6709 57.3483C51.6709 60.2494 49.3218 62.6033 46.4165 62.6033C43.514 62.6033 41.1622 60.2501 41.1622 57.3483C41.1622 54.4451 43.514 52.0933 46.4165 52.0933C49.3218 52.0933 51.6709 54.4451 51.6709 57.3483Z" fill="white"/>
<path d="M45.1365 31.5627C45.1365 33.6388 43.4528 35.3218 41.376 35.3218C39.3027 35.3218 37.619 33.6381 37.619 31.5627C37.619 29.4865 39.3027 27.8043 41.376 27.8043C43.4542 27.8043 45.1365 29.4872 45.1365 31.5627Z" fill="white"/>
<path d="M61.754 73.8203C63.5221 73.8203 64.9554 72.387 64.9554 70.6189C64.9554 68.8508 63.5221 67.4175 61.754 67.4175C59.9859 67.4175 58.5526 68.8508 58.5526 70.6189C58.5526 72.387 59.9859 73.8203 61.754 73.8203Z" fill="white"/>
<path d="M61.754 65.8695C60.6344 65.8695 59.6069 66.2612 58.7946 66.9096L56.5138 64.7337C56.9807 63.5212 57.516 62.59 57.9597 61.8206L58.1405 61.495C59.3755 59.2662 60.441 57.3406 60.4832 52.625C60.4832 52.4281 60.4804 52.2234 60.474 52.0061L60.4712 51.8591C60.346 48.4516 59.085 46.0351 56.4906 44.2431C54.4081 42.84 51.4978 42.0671 48.2908 42.0671H48.1853C45.6056 42.0671 42.8965 42.5974 40.954 43.4772L40.9083 43.4983L40.8795 43.4849C39.7113 42.9526 38.2569 42.5467 36.6801 42.3048L40.0974 36.7059C40.5074 36.8086 40.9343 36.8683 41.376 36.8683C44.3031 36.8683 46.6845 34.487 46.6845 31.5613C46.6845 28.6355 44.3024 26.2563 41.376 26.2563C38.4524 26.2563 36.0724 28.6355 36.0724 31.5613C36.0724 32.9264 36.595 34.1684 37.4439 35.1101L33.1474 42.148L31.5924 42.1698C31.5418 42.1698 31.4912 42.174 31.4419 42.1789C29.0416 42.4469 26.9254 43.1621 25.312 44.2537C22.9749 45.8677 21.7294 48.0093 21.42 50.9476C21.3363 51.1952 21.3173 51.4519 21.3588 51.6995C21.356 51.7635 21.3461 51.8218 21.344 51.8865L21.3405 52.087C21.3363 52.2776 21.3327 52.4576 21.3327 52.6398C21.3735 57.3392 22.4411 59.2662 23.6789 61.4964L23.8759 61.8522C25.1819 64.1091 26.4549 66.7127 26.419 71.5191C26.4127 78.5084 27.7201 82.1803 28.8222 84.0377C30.0325 86.0513 30.8357 87 32.9582 87C35.0062 87 36.2166 85.2474 36.3502 83.5461C36.4332 82.712 36.4473 81.7605 36.4642 80.7519C36.5 78.4768 36.5458 75.6432 37.4101 72.7294C37.7639 71.5718 38.1633 70.2623 38.9271 69.1089C39.3428 68.4829 40.2226 67.8471 41.0996 67.8471C41.7804 67.8471 42.3592 68.248 42.8705 69.0709C43.6083 70.2595 44.0535 71.5598 44.4241 72.778C45.2765 75.634 45.6429 78.9487 45.4101 81.6437C45.2469 83.5173 45.6091 84.9527 46.4876 85.9106C47.411 86.9198 48.5384 86.9986 48.8612 86.9986H48.8626C50.8754 86.9986 51.7644 86.0843 52.9966 84.03C54.0944 82.181 55.4011 78.5105 55.3962 71.5092C55.3878 70.2538 55.4736 69.1475 55.6213 68.1615L57.1193 69.5906C57.0462 69.9219 57.0047 70.2644 57.0047 70.6174C57.0047 73.2379 59.1335 75.3668 61.754 75.3668C64.3724 75.3668 66.5034 73.2379 66.5034 70.6174C66.5034 67.9998 64.3724 65.8695 61.754 65.8695ZM41.376 29.3529C42.5962 29.3529 43.5886 30.3431 43.5886 31.5627C43.5886 32.7822 42.5962 33.7745 41.376 33.7745C40.1593 33.7745 39.1677 32.7822 39.1677 31.5627C39.1677 30.3431 40.1586 29.3529 41.376 29.3529ZM27.0604 46.8108C28.2328 46.0168 29.8391 45.483 31.712 45.265L34.9844 45.2207C35.7904 45.2896 36.5774 45.4113 37.3124 45.5744C33.6833 50.2232 28.3847 52.3317 24.589 50.6178C24.8942 48.9573 25.6686 47.7715 27.0604 46.8108ZM52.3024 71.5212C52.308 78.1392 51.0731 81.2084 50.3409 82.442C49.4864 83.8633 49.3422 83.902 48.8992 83.9034C48.6593 83.8507 48.3808 83.2093 48.4948 81.9117C48.7634 78.8017 48.3618 75.1502 47.3885 71.8841C46.9538 70.4571 46.4271 68.9309 45.5008 67.4364C44.4241 65.7049 42.8614 64.7498 41.0989 64.7498C39.276 64.7498 37.4115 65.79 36.3453 67.3984C35.3326 68.9274 34.8227 70.6027 34.4492 71.8257C34.4478 71.8299 34.4295 71.8918 34.4281 71.896C33.4576 75.1706 33.4098 78.2384 33.369 80.702C33.3542 81.6859 33.3394 82.5348 33.2677 83.2726C33.2459 83.5489 33.0968 83.8528 32.9596 83.9041C32.3893 83.9041 32.3555 83.9041 31.4806 82.4497C30.745 81.2084 29.51 78.1399 29.5156 71.5338C29.5564 65.9574 28.0084 62.8136 26.5709 60.3296L26.3859 59.9948C25.3957 58.2099 24.6502 56.8602 24.4695 53.8649C25.4034 54.1427 26.3803 54.2806 27.3818 54.2806C31.9321 54.2806 36.9466 51.4878 40.3647 46.654L44.7793 48.9939C45.0092 49.1169 45.2575 49.1753 45.5022 49.1753C46.0557 49.1753 46.5931 48.8757 46.8716 48.3518C47.271 47.5957 46.9841 46.6596 46.228 46.258L44.8116 45.5076C45.8926 45.2889 47.0586 45.1644 48.1839 45.1644H48.2894C50.8494 45.1644 53.2062 45.765 54.745 46.8017C56.5004 48.0149 57.2881 49.5607 57.376 51.9449L57.3781 52.0645C57.3823 52.2607 57.3866 52.4457 57.3866 52.6116C57.3521 56.5269 56.5461 57.9813 55.4321 59.9941L55.2626 60.2987C54.8793 60.9626 54.4904 61.6729 54.1254 62.4578L52.3116 60.7277C52.8855 59.7311 53.2188 58.5784 53.2188 57.3483C53.2188 53.5976 50.1672 50.5467 46.4158 50.5467C42.6658 50.5467 39.6142 53.5976 39.6142 57.3483C39.6142 61.099 42.6658 64.1513 46.4158 64.1513C47.8175 64.1513 49.1207 63.7251 50.2045 62.9951L52.9762 65.6395C52.5542 67.262 52.2855 69.175 52.3024 71.5212ZM46.4172 61.0554C44.3742 61.0554 42.7102 59.3921 42.7102 57.3483C42.7102 55.3053 44.3742 53.6413 46.4172 53.6413C48.4603 53.6413 50.1243 55.3046 50.1243 57.3483C50.1236 59.3921 48.4596 61.0554 46.4172 61.0554ZM61.754 72.2737C60.8426 72.2737 60.0992 71.5303 60.0992 70.6188C60.0992 69.7074 60.8426 68.9647 61.754 68.9647C62.6655 68.9647 63.4089 69.7074 63.4089 70.6188C63.4089 71.5303 62.6655 72.2737 61.754 72.2737Z" fill="#3B6A75"/>
<path d="M67.3403 28.3845H49.7741V31.4804H67.3403V28.3845Z" fill="#3B6A75"/>
<path d="M61.3222 33.5319H49.7741V36.6264H61.3222V33.5319Z" fill="#3B6A75"/>
<path d="M82.5934 67.352H69.0029V70.4472H82.5934V67.352Z" fill="#3B6A75"/>
<path d="M78.1092 72.4959H69.0029V75.5918H78.1092V72.4959Z" fill="#3B6A75"/>
</g>
<defs>
<clipPath id="clip0">
<rect width="64" height="64" fill="white" transform="translate(20 23)"/>
</clipPath>
</defs>
</svg>
