<svg width="103" height="103" viewBox="0 0 103 103" fill="none" xmlns="http://www.w3.org/2000/svg">
<circle cx="51.5" cy="51.5" r="50" stroke="#60DAD0" stroke-width="3" stroke-dasharray="5 5"/>
<path d="M52.6778 24.2194C51.7093 22.9873 50.2479 22.2432 48.6486 22.2432C46.6793 22.2432 44.9091 23.3544 44.0251 25.1422L43.8282 25.5388H39.422V32.3502H49.1592C49.5755 29.2965 50.8253 26.508 52.6778 24.2194Z" fill="#FF889C"/>
<path d="M65.5172 51.0959C56.413 51.0959 49.0045 43.6901 49.0045 34.586C49.0045 34.3131 49.0115 34.0444 49.0228 33.7765H37.9937V28.8344H28.6518V78.4949H68.0955C70.2764 78.4949 72.0515 76.7205 72.0515 74.5374V49.7462C70.0464 50.6141 67.838 51.0959 65.5172 51.0959Z" fill="#F4F2E8"/>
<path d="M81.316 34.5874C81.316 43.3111 74.2416 50.3841 65.5172 50.3841C56.7963 50.3841 49.7176 43.3111 49.7176 34.5874C49.7176 25.8623 56.7949 18.7906 65.5172 18.7906C74.2416 18.7899 81.316 25.8623 81.316 34.5874Z" fill="#9AE0FF"/>
<path d="M37.5464 50.5086L36.7713 49.384L34.1284 51.2077L37.3277 55.8459L43.7326 48.021L41.2471 45.9878L37.5464 50.5086Z" fill="#3B6A75"/>
<path d="M37.5464 59.5734L36.7713 58.4481L34.127 60.271L37.3277 64.9128L43.7326 57.0823L41.2471 55.0505L37.5464 59.5734Z" fill="#3B6A75"/>
<path d="M37.5464 68.6395L36.7713 67.5143L34.1284 69.3386L37.3291 73.979L43.7326 66.1471L41.2471 64.1138L37.5464 68.6395Z" fill="#3B6A75"/>
<path d="M59.4766 51.5727H46.7272V54.7832H59.4766V51.5727Z" fill="#3B6A75"/>
<path d="M65.6867 59.816H46.7272V63.0259H65.6867V59.816Z" fill="#3B6A75"/>
<path d="M65.6867 68.0537H46.7272V71.2635H65.6867V68.0537Z" fill="#3B6A75"/>
<path d="M82.9203 34.5867C82.9203 24.9902 75.1137 17.185 65.5172 17.185C60.9338 17.185 56.7618 18.9679 53.6498 21.8732C52.3015 20.6438 50.5433 19.9264 48.6486 19.9264C46.1385 19.9264 43.85 21.1671 42.4645 23.2214H37.1019V26.5163H26.3337V80.8158H68.0962C71.5557 80.8158 74.371 77.9991 74.371 74.5381V49.5606C79.4839 46.5258 82.9203 40.9508 82.9203 34.5867ZM40.3124 26.4312H44.381L44.8227 25.5381C45.5569 24.0576 47.0233 23.137 48.6486 23.137C49.7331 23.137 50.7409 23.5533 51.5131 24.2665C49.968 26.3567 48.8828 28.8035 48.3989 31.4584H40.3124V26.4312ZM71.1597 74.5381C71.1597 76.2289 69.7848 77.6052 68.0962 77.6052H29.545V29.7269H37.1026V34.6697H48.1148C48.1598 44.2275 55.9488 51.9897 65.5172 51.9897C67.492 51.9897 69.3895 51.6543 71.1597 51.0452V74.5381ZM65.5172 48.7799C57.6909 48.7799 51.3232 42.413 51.3232 34.5874C51.3232 26.7625 57.6909 20.3955 65.5172 20.3955C73.3435 20.3955 79.709 26.7625 79.7104 34.5874C79.7104 42.4137 73.3435 48.7799 65.5172 48.7799Z" fill="#3B6A75"/>
<path d="M73.5334 29.3843C73.4813 27.9559 72.9215 27.1352 72.0684 26.5444C71.2083 25.9642 69.9902 25.6892 68.7833 25.6934C67.6658 25.6892 66.5665 25.9262 65.8203 26.2631L65.5214 26.3953L65.226 26.2631C64.6289 25.9916 63.7976 25.7877 62.9143 25.7201L61.3938 25.7391C60.4943 25.8418 59.6341 26.1055 58.9815 26.5451C58.1248 27.1359 57.565 27.9615 57.5123 29.385C57.5123 29.4968 57.5095 29.6044 57.5095 29.6994C57.5263 31.7157 57.9884 32.4401 58.5447 33.4599C59.1221 34.4544 59.7881 35.7337 59.7692 38.101C59.7677 40.8473 60.2298 42.46 60.7418 43.3131C61.2545 44.1683 61.4282 44.2942 61.9888 44.2942C62.5859 44.2942 62.787 43.695 62.813 43.3785C62.9263 42.216 62.7265 40.3993 63.3011 38.4625C63.4657 37.9273 63.6661 37.2556 64.0684 36.6487C64.6106 35.8307 66.0756 35.1921 66.9822 36.6487C67.3641 37.2683 67.5828 37.9273 67.7445 38.4625C68.1862 39.9373 68.3114 41.4845 68.208 42.6604C68.0688 44.2991 69.0288 44.2942 69.0604 44.2942C69.5682 44.2942 69.7918 44.1683 70.3073 43.3131C70.8123 42.4607 71.2786 40.8473 71.2744 38.101C71.2596 35.7302 71.9228 34.4544 72.5002 33.4564C73.0601 32.4401 73.5186 31.7164 73.5376 29.7001C73.539 29.5995 73.5376 29.4954 73.5334 29.3843Z" fill="#F4F2E8"/>
<path d="M69.0618 45.8984H69.0604C68.426 45.8984 67.779 45.6073 67.331 45.1192C66.7592 44.4968 66.5159 43.624 66.6115 42.5247C66.7058 41.4269 66.5553 40.0808 66.2092 38.9224C66.0644 38.4414 65.8921 37.935 65.6185 37.4919C65.5953 37.4547 65.5749 37.4272 65.5594 37.4068C65.5073 37.4364 65.4405 37.4891 65.4082 37.5355C65.1487 37.9287 64.9918 38.4343 64.8547 38.8788C64.5002 40.0716 64.4826 41.2096 64.4672 42.2139C64.4587 42.683 64.4524 43.126 64.4123 43.5354C64.3188 44.6951 63.4572 45.8991 61.9916 45.8991C60.5393 45.8991 59.9429 45.1016 59.3669 44.1374C58.5693 42.8067 58.167 40.7763 58.1684 38.101C58.1832 36.0298 57.5924 35.01 57.1592 34.2666L57.0509 34.0711C56.4995 33.0654 55.9263 32.0259 55.9073 29.7142L55.9102 29.3857C55.9784 27.5248 56.6859 26.1829 58.0714 25.2243C58.921 24.6525 60.0012 24.2833 61.2137 24.1448C61.2672 24.1391 61.3206 24.1349 61.3748 24.1349L62.896 24.1159C62.9438 24.1145 62.9931 24.1159 63.0409 24.1208C63.9348 24.1905 64.8005 24.3747 65.5249 24.6504C66.4659 24.2925 67.6208 24.0899 68.7566 24.0899C70.415 24.0913 71.8919 24.4901 72.9672 25.2159C74.3682 26.1871 75.0722 27.529 75.139 29.3295C75.1432 29.4666 75.1446 29.5869 75.1446 29.7015C75.1256 32.0379 74.5475 33.0773 73.9905 34.0845L73.9082 34.2336C73.4609 35.0079 72.8702 36.0298 72.8835 38.0918C72.8877 40.7215 72.4756 42.8074 71.6921 44.1318C71.1485 45.0292 70.5043 45.8984 69.0618 45.8984ZM61.4993 27.3427C60.8396 27.4278 60.2671 27.6155 59.8782 27.8772C59.4393 28.181 59.151 28.5544 59.1179 29.4448L59.1165 29.6994C59.1292 31.1876 59.3901 31.6609 59.8634 32.5217L59.9562 32.6912C60.4464 33.5352 61.3994 35.1753 61.3776 38.1122C61.3776 38.6503 61.3952 39.1271 61.4282 39.5498C61.5007 39.0532 61.6076 38.5335 61.7651 38.0039C61.7665 37.9983 61.7855 37.9364 61.7883 37.9308C61.9691 37.3442 62.2173 36.539 62.7335 35.7618C63.3721 34.7969 64.503 34.1738 65.6121 34.1738C66.7248 34.1738 67.696 34.7505 68.3487 35.8005C68.8206 36.565 69.0878 37.3407 69.2855 37.999C69.4268 38.4695 69.5415 38.9576 69.6301 39.4499C69.6589 39.049 69.6744 38.6017 69.6744 38.1038C69.6582 35.4038 70.4093 33.8735 71.1147 32.6539L71.1858 32.5259C71.6619 31.6665 71.9242 31.1932 71.9355 29.686C71.9355 29.6164 71.9341 29.5285 71.9313 29.435C71.9003 28.5516 71.6232 28.1887 71.1569 27.8659C70.6386 27.5157 69.7567 27.3012 68.8135 27.3012C67.7797 27.3012 66.9414 27.5213 66.4828 27.7281L66.179 27.8624C65.7633 28.0509 65.2865 28.0495 64.8688 27.861L64.5734 27.7288C64.1373 27.5318 63.5037 27.3841 62.8615 27.3279L61.4993 27.3427Z" fill="#3B6A75"/>
<path d="M67.5652 29.0841C67.312 29.0841 67.0546 29.0243 66.8162 28.8985L64.7731 27.8161C63.9889 27.3997 63.6907 26.4278 64.1056 25.645C64.5199 24.8608 65.4911 24.5612 66.2753 24.9776L68.3184 26.06C69.1026 26.4742 69.4022 27.4469 68.9872 28.2296C68.6975 28.7726 68.1405 29.0841 67.5652 29.0841Z" fill="#3B6A75"/>
</svg>
