<svg width="165" height="52" viewBox="0 0 165 52" fill="none" xmlns="http://www.w3.org/2000/svg">
<path d="M75.86 6.99993C77.78 6.99993 79.38 7.67326 80.66 9.01993C81.9533 10.3666 82.6 12.0266 82.6 13.9999C82.6 15.9733 81.9533 17.6333 80.66 18.9799C79.38 20.3266 77.78 20.9999 75.86 20.9999H70.3V6.99993H75.86ZM75.86 18.3599C77.0733 18.3599 78.06 17.9599 78.82 17.1599C79.58 16.3466 79.96 15.2933 79.96 13.9999C79.96 12.7066 79.58 11.6599 78.82 10.8599C78.06 10.0466 77.0733 9.63993 75.86 9.63993H73.06V18.3599H75.86Z" fill="white"/>
<path d="M86.6178 17.0599C86.9645 18.3133 87.9045 18.9399 89.4378 18.9399C90.4245 18.9399 91.1711 18.6066 91.6778 17.9399L93.7578 19.1399C92.7711 20.5666 91.3178 21.2799 89.3978 21.2799C87.7445 21.2799 86.4178 20.7799 85.4178 19.7799C84.4178 18.7799 83.9178 17.5199 83.9178 15.9999C83.9178 14.4933 84.4111 13.2399 85.3978 12.2399C86.3845 11.2266 87.6511 10.7199 89.1978 10.7199C90.6645 10.7199 91.8711 11.2266 92.8178 12.2399C93.7778 13.2533 94.2578 14.5066 94.2578 15.9999C94.2578 16.3333 94.2245 16.6866 94.1578 17.0599H86.6178ZM86.5778 15.0599H91.6778C91.5311 14.3799 91.2245 13.8733 90.7578 13.5399C90.3045 13.2066 89.7845 13.0399 89.1978 13.0399C88.5045 13.0399 87.9311 13.2199 87.4778 13.5799C87.0245 13.9266 86.7245 14.4199 86.5778 15.0599Z" fill="white"/>
<path d="M101.619 10.7199C102.712 10.7199 103.612 11.0866 104.319 11.8199C105.039 12.5533 105.399 13.5666 105.399 14.8599V20.9999H102.819V15.1799C102.819 14.5133 102.639 14.0066 102.279 13.6599C101.919 13.2999 101.439 13.1199 100.839 13.1199C100.172 13.1199 99.6389 13.3266 99.2389 13.7399C98.8389 14.1533 98.6389 14.7733 98.6389 15.5999V20.9999H96.0589V10.9999H98.6389V12.1199C99.2656 11.1866 100.259 10.7199 101.619 10.7199Z" fill="white"/>
<path d="M113.322 13.4799H111.062V17.6399C111.062 17.9866 111.149 18.2399 111.322 18.3999C111.495 18.5599 111.749 18.6533 112.082 18.6799C112.415 18.6933 112.829 18.6866 113.322 18.6599V20.9999C111.549 21.1999 110.295 21.0333 109.562 20.4999C108.842 19.9666 108.482 19.0133 108.482 17.6399V13.4799H106.742V10.9999H108.482V8.97993L111.062 8.19993V10.9999H113.322V13.4799Z" fill="white"/>
<path d="M122.428 10.9999H125.008V20.9999H122.428V19.8199C121.655 20.7933 120.568 21.2799 119.168 21.2799C117.835 21.2799 116.688 20.7733 115.728 19.7599C114.782 18.7333 114.308 17.4799 114.308 15.9999C114.308 14.5199 114.782 13.2733 115.728 12.2599C116.688 11.2333 117.835 10.7199 119.168 10.7199C120.568 10.7199 121.655 11.2066 122.428 12.1799V10.9999ZM117.668 18.0399C118.188 18.5599 118.848 18.8199 119.648 18.8199C120.448 18.8199 121.108 18.5599 121.628 18.0399C122.162 17.5066 122.428 16.8266 122.428 15.9999C122.428 15.1733 122.162 14.4999 121.628 13.9799C121.108 13.4466 120.448 13.1799 119.648 13.1799C118.848 13.1799 118.188 13.4466 117.668 13.9799C117.148 14.4999 116.888 15.1733 116.888 15.9999C116.888 16.8266 117.148 17.5066 117.668 18.0399Z" fill="white"/>
<path d="M127.348 20.9999V6.39993H129.928V20.9999H127.348Z" fill="white"/>
<path d="M78.76 37.7399C79.9867 38.4466 80.6 39.5133 80.6 40.9399C80.6 42.1266 80.18 43.0999 79.34 43.8599C78.5 44.6199 77.4667 44.9999 76.24 44.9999H70.3V30.9999H75.82C77.02 30.9999 78.0267 31.3733 78.84 32.1199C79.6667 32.8533 80.08 33.7933 80.08 34.9399C80.08 36.0999 79.64 37.0333 78.76 37.7399ZM75.82 33.5799H73.06V36.6599H75.82C76.2467 36.6599 76.6 36.5133 76.88 36.2199C77.1733 35.9266 77.32 35.5599 77.32 35.1199C77.32 34.6799 77.18 34.3133 76.9 34.0199C76.62 33.7266 76.26 33.5799 75.82 33.5799ZM76.24 42.4199C76.7067 42.4199 77.0933 42.2666 77.4 41.9599C77.7067 41.6399 77.86 41.2399 77.86 40.7599C77.86 40.2933 77.7067 39.9066 77.4 39.5999C77.0933 39.2799 76.7067 39.1199 76.24 39.1199H73.06V42.4199H76.24Z" fill="white"/>
<path d="M84.6256 41.0599C84.9723 42.3133 85.9123 42.9399 87.4456 42.9399C88.4323 42.9399 89.179 42.6066 89.6856 41.9399L91.7656 43.1399C90.779 44.5666 89.3256 45.2799 87.4056 45.2799C85.7523 45.2799 84.4256 44.7799 83.4256 43.7799C82.4256 42.7799 81.9256 41.5199 81.9256 39.9999C81.9256 38.4933 82.419 37.2399 83.4056 36.2399C84.3923 35.2266 85.659 34.7199 87.2056 34.7199C88.6723 34.7199 89.879 35.2266 90.8256 36.2399C91.7856 37.2533 92.2656 38.5066 92.2656 39.9999C92.2656 40.3333 92.2323 40.6866 92.1656 41.0599H84.6256ZM84.5856 39.0599H89.6856C89.539 38.3799 89.2323 37.8733 88.7656 37.5399C88.3123 37.2066 87.7923 37.0399 87.2056 37.0399C86.5123 37.0399 85.939 37.2199 85.4856 37.5799C85.0323 37.9266 84.7323 38.4199 84.5856 39.0599Z" fill="white"/>
<path d="M101.589 34.9999H104.169V44.9999H101.589V43.8199C100.815 44.7933 99.7286 45.2799 98.3286 45.2799C96.9953 45.2799 95.8486 44.7733 94.8886 43.7599C93.9419 42.7333 93.4686 41.4799 93.4686 39.9999C93.4686 38.5199 93.9419 37.2733 94.8886 36.2599C95.8486 35.2333 96.9953 34.7199 98.3286 34.7199C99.7286 34.7199 100.815 35.2066 101.589 36.1799V34.9999ZM96.8286 42.0399C97.3486 42.5599 98.0086 42.8199 98.8086 42.8199C99.6086 42.8199 100.269 42.5599 100.789 42.0399C101.322 41.5066 101.589 40.8266 101.589 39.9999C101.589 39.1733 101.322 38.4999 100.789 37.9799C100.269 37.4466 99.6086 37.1799 98.8086 37.1799C98.0086 37.1799 97.3486 37.4466 96.8286 37.9799C96.3086 38.4999 96.0486 39.1733 96.0486 39.9999C96.0486 40.8266 96.3086 41.5066 96.8286 42.0399Z" fill="white"/>
<path d="M113.108 34.9999H115.688V44.9999H113.108V43.8799C112.481 44.8133 111.488 45.2799 110.128 45.2799C109.035 45.2799 108.128 44.9133 107.408 44.1799C106.701 43.4466 106.348 42.4333 106.348 41.1399V34.9999H108.928V40.8199C108.928 41.4866 109.108 41.9999 109.468 42.3599C109.828 42.7066 110.308 42.8799 110.908 42.8799C111.575 42.8799 112.108 42.6733 112.508 42.2599C112.908 41.8466 113.108 41.2266 113.108 40.3999V34.9999Z" fill="white"/>
<path d="M123.771 37.4799H121.511V41.6399C121.511 41.9866 121.598 42.2399 121.771 42.3999C121.944 42.5599 122.198 42.6533 122.531 42.6799C122.864 42.6933 123.278 42.6866 123.771 42.6599V44.9999C121.998 45.1999 120.744 45.0333 120.011 44.4999C119.291 43.9666 118.931 43.0133 118.931 41.6399V37.4799H117.191V34.9999H118.931V32.9799L121.511 32.1999V34.9999H123.771V37.4799Z" fill="white"/>
<path d="M126.87 33.7999C126.443 33.7999 126.07 33.6466 125.75 33.3399C125.443 33.0199 125.29 32.6466 125.29 32.2199C125.29 31.7933 125.443 31.4199 125.75 31.0999C126.07 30.7799 126.443 30.6199 126.87 30.6199C127.31 30.6199 127.683 30.7799 127.99 31.0999C128.31 31.4199 128.47 31.7933 128.47 32.2199C128.47 32.6466 128.31 33.0199 127.99 33.3399C127.683 33.6466 127.31 33.7999 126.87 33.7999ZM125.59 44.9999V34.9999H128.17V44.9999H125.59Z" fill="white"/>
<path d="M138.112 34.9999H140.692V48.9999H138.112V43.8199C137.352 44.7933 136.272 45.2799 134.872 45.2799C133.525 45.2799 132.372 44.7733 131.412 43.7599C130.465 42.7333 129.992 41.4799 129.992 39.9999C129.992 38.5199 130.465 37.2733 131.412 36.2599C132.372 35.2333 133.525 34.7199 134.872 34.7199C136.272 34.7199 137.352 35.2066 138.112 36.1799V34.9999ZM133.352 42.0399C133.885 42.5599 134.552 42.8199 135.352 42.8199C136.152 42.8199 136.812 42.5599 137.332 42.0399C137.852 41.5066 138.112 40.8266 138.112 39.9999C138.112 39.1733 137.852 38.4999 137.332 37.9799C136.812 37.4466 136.152 37.1799 135.352 37.1799C134.552 37.1799 133.885 37.4466 133.352 37.9799C132.832 38.4999 132.572 39.1733 132.572 39.9999C132.572 40.8266 132.832 41.5066 133.352 42.0399Z" fill="white"/>
<path d="M149.651 34.9999H152.231V44.9999H149.651V43.8799C149.024 44.8133 148.031 45.2799 146.671 45.2799C145.578 45.2799 144.671 44.9133 143.951 44.1799C143.244 43.4466 142.891 42.4333 142.891 41.1399V34.9999H145.471V40.8199C145.471 41.4866 145.651 41.9999 146.011 42.3599C146.371 42.7066 146.851 42.8799 147.451 42.8799C148.118 42.8799 148.651 42.6733 149.051 42.2599C149.451 41.8466 149.651 41.2266 149.651 40.3999V34.9999Z" fill="white"/>
<path d="M156.774 41.0599C157.121 42.3133 158.061 42.9399 159.594 42.9399C160.581 42.9399 161.327 42.6066 161.834 41.9399L163.914 43.1399C162.927 44.5666 161.474 45.2799 159.554 45.2799C157.901 45.2799 156.574 44.7799 155.574 43.7799C154.574 42.7799 154.074 41.5199 154.074 39.9999C154.074 38.4933 154.567 37.2399 155.554 36.2399C156.541 35.2266 157.807 34.7199 159.354 34.7199C160.821 34.7199 162.027 35.2266 162.974 36.2399C163.934 37.2533 164.414 38.5066 164.414 39.9999C164.414 40.3333 164.381 40.6866 164.314 41.0599H156.774ZM156.734 39.0599H161.834C161.687 38.3799 161.381 37.8733 160.914 37.5399C160.461 37.2066 159.941 37.0399 159.354 37.0399C158.661 37.0399 158.087 37.2199 157.634 37.5799C157.181 37.9266 156.881 38.4199 156.734 39.0599Z" fill="white"/>
<path d="M20.6672 51.0001C18.5839 51.0001 16.7505 50.0034 15.8339 48.3423C15.3339 47.4286 4.1672 26.1662 1.50053 18.0266C-0.666136 11.2991 4.33386 4.23927 10.5005 1.91369C16.7505 -0.494946 23.6672 1.99675 27.4172 7.56153C31.2505 2.0798 38.3339 -0.41189 44.5839 1.91369C50.6672 4.23927 55.7505 11.2991 53.5005 18.1097C50.7505 26.2492 39.6672 47.4286 39.1672 48.3423C38.1672 50.0864 36.0839 51.1662 33.8339 51.0001C31.8339 50.834 30.2505 49.7542 29.6672 48.1761L29.5839 47.927C26.9172 40.618 24.8339 35.8838 23.2505 33.8074C22.0005 32.1462 19.9172 30.9835 17.9172 30.9004C17.0005 30.9004 16.3339 30.0698 16.3339 29.1562C16.3339 28.2426 17.0839 27.5781 18.0839 27.5781C21.0005 27.6612 24.0839 29.3223 25.9172 31.731C28.5839 35.2193 31.6672 43.8572 32.7505 46.6811L32.8339 46.9303C33.0005 47.3456 33.6672 47.5947 34.1672 47.5947C35.0005 47.6778 35.9172 47.3456 36.3339 46.6811C36.4172 46.515 47.8339 24.8373 50.4172 16.9469C52.0839 11.9635 48.1672 6.64791 43.4172 4.82067C37.8339 2.74426 31.4172 5.65123 29.0005 11.3821C28.7505 11.9635 28.1672 12.3788 27.5005 12.3788C26.8339 12.3788 26.2505 11.9635 26.0005 11.3821C23.5839 5.56818 17.3339 2.6612 11.8339 4.82067C6.9172 6.73097 3.00053 12.0466 4.6672 17.113C7.25053 25.0034 18.6672 46.6811 18.7505 46.8472C19.0839 47.5117 20.0839 47.7609 20.9172 47.7609C21.4172 47.7609 22.0839 47.5117 22.2505 47.0964C22.5839 46.2658 23.5005 45.7675 24.3339 46.0997C25.1672 46.432 25.6672 47.3456 25.3339 48.1761C24.7505 49.7542 23.1672 50.834 21.1672 51.0001C21.0005 51.0001 20.8339 51.0001 20.6672 51.0001Z" fill="white"/>
</svg>
