<svg width="164" height="50" viewBox="0 0 164 50" fill="none" xmlns="http://www.w3.org/2000/svg">
<path d="M74.86 5.9999C76.78 5.9999 78.38 6.67324 79.66 8.0199C80.9533 9.36657 81.6 11.0266 81.6 12.9999C81.6 14.9732 80.9533 16.6332 79.66 17.9799C78.38 19.3266 76.78 19.9999 74.86 19.9999H69.3V5.9999H74.86ZM74.86 17.3599C76.0733 17.3599 77.06 16.9599 77.82 16.1599C78.58 15.3466 78.96 14.2932 78.96 12.9999C78.96 11.7066 78.58 10.6599 77.82 9.8599C77.06 9.04657 76.0733 8.6399 74.86 8.6399H72.06V17.3599H74.86Z" fill="#01044B"/>
<path d="M85.6178 16.0599C85.9645 17.3132 86.9045 17.9399 88.4378 17.9399C89.4245 17.9399 90.1711 17.6066 90.6778 16.9399L92.7578 18.1399C91.7711 19.5666 90.3178 20.2799 88.3978 20.2799C86.7445 20.2799 85.4178 19.7799 84.4178 18.7799C83.4178 17.7799 82.9178 16.5199 82.9178 14.9999C82.9178 13.4932 83.4111 12.2399 84.3978 11.2399C85.3845 10.2266 86.6511 9.7199 88.1978 9.7199C89.6645 9.7199 90.8711 10.2266 91.8178 11.2399C92.7778 12.2532 93.2578 13.5066 93.2578 14.9999C93.2578 15.3332 93.2245 15.6866 93.1578 16.0599H85.6178ZM85.5778 14.0599H90.6778C90.5311 13.3799 90.2245 12.8732 89.7578 12.5399C89.3045 12.2066 88.7845 12.0399 88.1978 12.0399C87.5045 12.0399 86.9311 12.2199 86.4778 12.5799C86.0245 12.9266 85.7245 13.4199 85.5778 14.0599Z" fill="#01044B"/>
<path d="M100.619 9.7199C101.712 9.7199 102.612 10.0866 103.319 10.8199C104.039 11.5532 104.399 12.5666 104.399 13.8599V19.9999H101.819V14.1799C101.819 13.5132 101.639 13.0066 101.279 12.6599C100.919 12.2999 100.439 12.1199 99.8389 12.1199C99.1722 12.1199 98.6389 12.3266 98.2389 12.7399C97.8389 13.1532 97.6389 13.7732 97.6389 14.5999V19.9999H95.0589V9.9999H97.6389V11.1199C98.2656 10.1866 99.2589 9.7199 100.619 9.7199Z" fill="#01044B"/>
<path d="M112.322 12.4799H110.062V16.6399C110.062 16.9866 110.149 17.2399 110.322 17.3999C110.495 17.5599 110.749 17.6532 111.082 17.6799C111.415 17.6932 111.829 17.6866 112.322 17.6599V19.9999C110.549 20.1999 109.295 20.0332 108.562 19.4999C107.842 18.9666 107.482 18.0132 107.482 16.6399V12.4799H105.742V9.9999H107.482V7.9799L110.062 7.1999V9.9999H112.322V12.4799Z" fill="#01044B"/>
<path d="M121.428 9.9999H124.008V19.9999H121.428V18.8199C120.655 19.7932 119.568 20.2799 118.168 20.2799C116.835 20.2799 115.688 19.7732 114.728 18.7599C113.782 17.7332 113.308 16.4799 113.308 14.9999C113.308 13.5199 113.782 12.2732 114.728 11.2599C115.688 10.2332 116.835 9.7199 118.168 9.7199C119.568 9.7199 120.655 10.2066 121.428 11.1799V9.9999ZM116.668 17.0399C117.188 17.5599 117.848 17.8199 118.648 17.8199C119.448 17.8199 120.108 17.5599 120.628 17.0399C121.162 16.5066 121.428 15.8266 121.428 14.9999C121.428 14.1732 121.162 13.4999 120.628 12.9799C120.108 12.4466 119.448 12.1799 118.648 12.1799C117.848 12.1799 117.188 12.4466 116.668 12.9799C116.148 13.4999 115.888 14.1732 115.888 14.9999C115.888 15.8266 116.148 16.5066 116.668 17.0399Z" fill="#01044B"/>
<path d="M126.348 19.9999V5.3999H128.928V19.9999H126.348Z" fill="#01044B"/>
<path d="M77.76 36.7399C78.9867 37.4466 79.6 38.5132 79.6 39.9399C79.6 41.1266 79.18 42.0999 78.34 42.8599C77.5 43.6199 76.4667 43.9999 75.24 43.9999H69.3V29.9999H74.82C76.02 29.9999 77.0267 30.3732 77.84 31.1199C78.6667 31.8532 79.08 32.7932 79.08 33.9399C79.08 35.0999 78.64 36.0332 77.76 36.7399ZM74.82 32.5799H72.06V35.6599H74.82C75.2467 35.6599 75.6 35.5132 75.88 35.2199C76.1733 34.9266 76.32 34.5599 76.32 34.1199C76.32 33.6799 76.18 33.3132 75.9 33.0199C75.62 32.7266 75.26 32.5799 74.82 32.5799ZM75.24 41.4199C75.7067 41.4199 76.0933 41.2666 76.4 40.9599C76.7067 40.6399 76.86 40.2399 76.86 39.7599C76.86 39.2932 76.7067 38.9066 76.4 38.5999C76.0933 38.2799 75.7067 38.1199 75.24 38.1199H72.06V41.4199H75.24Z" fill="#01044B"/>
<path d="M83.6256 40.0599C83.9723 41.3132 84.9123 41.9399 86.4456 41.9399C87.4323 41.9399 88.1789 41.6066 88.6856 40.9399L90.7656 42.1399C89.7789 43.5666 88.3256 44.2799 86.4056 44.2799C84.7523 44.2799 83.4256 43.7799 82.4256 42.7799C81.4256 41.7799 80.9256 40.5199 80.9256 38.9999C80.9256 37.4932 81.4189 36.2399 82.4056 35.2399C83.3923 34.2266 84.6589 33.7199 86.2056 33.7199C87.6723 33.7199 88.8789 34.2266 89.8256 35.2399C90.7856 36.2532 91.2656 37.5066 91.2656 38.9999C91.2656 39.3332 91.2323 39.6866 91.1656 40.0599H83.6256ZM83.5856 38.0599H88.6856C88.5389 37.3799 88.2323 36.8732 87.7656 36.5399C87.3123 36.2066 86.7923 36.0399 86.2056 36.0399C85.5123 36.0399 84.9389 36.2199 84.4856 36.5799C84.0323 36.9266 83.7323 37.4199 83.5856 38.0599Z" fill="#01044B"/>
<path d="M100.589 33.9999H103.169V43.9999H100.589V42.8199C99.8152 43.7932 98.7286 44.2799 97.3286 44.2799C95.9952 44.2799 94.8486 43.7732 93.8886 42.7599C92.9419 41.7332 92.4686 40.4799 92.4686 38.9999C92.4686 37.5199 92.9419 36.2732 93.8886 35.2599C94.8486 34.2332 95.9952 33.7199 97.3286 33.7199C98.7286 33.7199 99.8152 34.2066 100.589 35.1799V33.9999ZM95.8286 41.0399C96.3486 41.5599 97.0086 41.8199 97.8086 41.8199C98.6086 41.8199 99.2686 41.5599 99.7886 41.0399C100.322 40.5066 100.589 39.8266 100.589 38.9999C100.589 38.1732 100.322 37.4999 99.7886 36.9799C99.2686 36.4466 98.6086 36.1799 97.8086 36.1799C97.0086 36.1799 96.3486 36.4466 95.8286 36.9799C95.3086 37.4999 95.0486 38.1732 95.0486 38.9999C95.0486 39.8266 95.3086 40.5066 95.8286 41.0399Z" fill="#01044B"/>
<path d="M112.108 33.9999H114.688V43.9999H112.108V42.8799C111.481 43.8132 110.488 44.2799 109.128 44.2799C108.035 44.2799 107.128 43.9132 106.408 43.1799C105.701 42.4466 105.348 41.4332 105.348 40.1399V33.9999H107.928V39.8199C107.928 40.4866 108.108 40.9999 108.468 41.3599C108.828 41.7066 109.308 41.8799 109.908 41.8799C110.575 41.8799 111.108 41.6732 111.508 41.2599C111.908 40.8466 112.108 40.2266 112.108 39.3999V33.9999Z" fill="#01044B"/>
<path d="M122.771 36.4799H120.511V40.6399C120.511 40.9866 120.598 41.2399 120.771 41.3999C120.944 41.5599 121.198 41.6532 121.531 41.6799C121.864 41.6932 122.278 41.6866 122.771 41.6599V43.9999C120.998 44.1999 119.744 44.0332 119.011 43.4999C118.291 42.9666 117.931 42.0132 117.931 40.6399V36.4799H116.191V33.9999H117.931V31.9799L120.511 31.1999V33.9999H122.771V36.4799Z" fill="#01044B"/>
<path d="M125.87 32.7999C125.443 32.7999 125.07 32.6466 124.75 32.3399C124.443 32.0199 124.29 31.6466 124.29 31.2199C124.29 30.7932 124.443 30.4199 124.75 30.0999C125.07 29.7799 125.443 29.6199 125.87 29.6199C126.31 29.6199 126.683 29.7799 126.99 30.0999C127.31 30.4199 127.47 30.7932 127.47 31.2199C127.47 31.6466 127.31 32.0199 126.99 32.3399C126.683 32.6466 126.31 32.7999 125.87 32.7999ZM124.59 43.9999V33.9999H127.17V43.9999H124.59Z" fill="#01044B"/>
<path d="M137.112 33.9999H139.692V47.9999H137.112V42.8199C136.352 43.7932 135.272 44.2799 133.872 44.2799C132.525 44.2799 131.372 43.7732 130.412 42.7599C129.465 41.7332 128.992 40.4799 128.992 38.9999C128.992 37.5199 129.465 36.2732 130.412 35.2599C131.372 34.2332 132.525 33.7199 133.872 33.7199C135.272 33.7199 136.352 34.2066 137.112 35.1799V33.9999ZM132.352 41.0399C132.885 41.5599 133.552 41.8199 134.352 41.8199C135.152 41.8199 135.812 41.5599 136.332 41.0399C136.852 40.5066 137.112 39.8266 137.112 38.9999C137.112 38.1732 136.852 37.4999 136.332 36.9799C135.812 36.4466 135.152 36.1799 134.352 36.1799C133.552 36.1799 132.885 36.4466 132.352 36.9799C131.832 37.4999 131.572 38.1732 131.572 38.9999C131.572 39.8266 131.832 40.5066 132.352 41.0399Z" fill="#01044B"/>
<path d="M148.651 33.9999H151.231V43.9999H148.651V42.8799C148.024 43.8132 147.031 44.2799 145.671 44.2799C144.578 44.2799 143.671 43.9132 142.951 43.1799C142.244 42.4466 141.891 41.4332 141.891 40.1399V33.9999H144.471V39.8199C144.471 40.4866 144.651 40.9999 145.011 41.3599C145.371 41.7066 145.851 41.8799 146.451 41.8799C147.118 41.8799 147.651 41.6732 148.051 41.2599C148.451 40.8466 148.651 40.2266 148.651 39.3999V33.9999Z" fill="#01044B"/>
<path d="M155.774 40.0599C156.121 41.3132 157.061 41.9399 158.594 41.9399C159.581 41.9399 160.327 41.6066 160.834 40.9399L162.914 42.1399C161.927 43.5666 160.474 44.2799 158.554 44.2799C156.901 44.2799 155.574 43.7799 154.574 42.7799C153.574 41.7799 153.074 40.5199 153.074 38.9999C153.074 37.4932 153.567 36.2399 154.554 35.2399C155.541 34.2266 156.807 33.7199 158.354 33.7199C159.821 33.7199 161.027 34.2266 161.974 35.2399C162.934 36.2532 163.414 37.5066 163.414 38.9999C163.414 39.3332 163.381 39.6866 163.314 40.0599H155.774ZM155.734 38.0599H160.834C160.687 37.3799 160.381 36.8732 159.914 36.5399C159.461 36.2066 158.941 36.0399 158.354 36.0399C157.661 36.0399 157.087 36.2199 156.634 36.5799C156.181 36.9266 155.881 37.4199 155.734 38.0599Z" fill="#01044B"/>
<g clip-path="url(#clip0)">
<path d="M19.6672 50.0001C17.5839 50.0001 15.7505 49.0034 14.8339 47.3423C14.3339 46.4286 3.1672 25.1662 0.500531 17.0266C-1.66614 10.2991 3.33386 3.23927 9.50053 0.913691C15.7505 -1.49495 22.6672 0.996748 26.4172 6.56153C30.2505 1.0798 37.3339 -1.41189 43.5839 0.913691C49.6672 3.23927 54.7505 10.2991 52.5005 17.1097C49.7505 25.2492 38.6672 46.4286 38.1672 47.3423C37.1672 49.0864 35.0839 50.1662 32.8339 50.0001C30.8339 49.834 29.2505 48.7542 28.6672 47.1761L28.5839 46.927C25.9172 39.618 23.8339 34.8838 22.2505 32.8074C21.0005 31.1462 18.9172 29.9835 16.9172 29.9004C16.0005 29.9004 15.3339 29.0698 15.3339 28.1562C15.3339 27.2426 16.0839 26.5781 17.0839 26.5781C20.0005 26.6612 23.0839 28.3223 24.9172 30.731C27.5839 34.2193 30.6672 42.8572 31.7505 45.6811L31.8339 45.9303C32.0005 46.3456 32.6672 46.5947 33.1672 46.5947C34.0005 46.6778 34.9172 46.3456 35.3339 45.6811C35.4172 45.515 46.8339 23.8373 49.4172 15.9469C51.0839 10.9635 47.1672 5.64791 42.4172 3.82067C36.8339 1.74426 30.4172 4.65123 28.0005 10.3821C27.7505 10.9635 27.1672 11.3788 26.5005 11.3788C25.8339 11.3788 25.2505 10.9635 25.0005 10.3821C22.5839 4.56818 16.3339 1.6612 10.8339 3.82067C5.9172 5.73097 2.00053 11.0466 3.6672 16.113C6.25053 24.0034 17.6672 45.6811 17.7505 45.8472C18.0839 46.5117 19.0839 46.7609 19.9172 46.7609C20.4172 46.7609 21.0839 46.5117 21.2505 46.0964C21.5839 45.2659 22.5005 44.7675 23.3339 45.0997C24.1672 45.432 24.6672 46.3456 24.3339 47.1761C23.7505 48.7542 22.1672 49.834 20.1672 50.0001C20.0005 50.0001 19.8339 50.0001 19.6672 50.0001Z" fill="#60DAD0"/>
</g>
<defs>
<clipPath id="clip0">
<rect width="53" height="50" fill="white"/>
</clipPath>
</defs>
</svg>
