<svg width="50" height="50" viewBox="0 0 50 50" fill="none" xmlns="http://www.w3.org/2000/svg">
<path d="M23.6434 43.3401C35.3734 43.3401 44.8824 33.8311 44.8824 22.1011C44.8824 10.3711 35.3734 0.862061 23.6434 0.862061C11.9134 0.862061 2.40439 10.3711 2.40439 22.1011C2.40439 33.8311 11.9134 43.3401 23.6434 43.3401Z" fill="#9AE0FF"/>
<path d="M39.9901 19.0538L39.9874 18.8379C39.8841 16.0714 38.8659 14.1132 36.778 12.6719C35.0637 11.5148 32.6451 10.8774 29.9659 10.8774H29.8951C27.7275 10.8774 25.4588 11.3176 23.8324 12.0522L23.5703 12.1692L23.3137 12.0555C22.0533 11.4818 20.3137 11.0725 18.5423 10.9307C18.5176 10.9291 18.4918 10.928 18.4687 10.9285L15.4967 10.9665C15.4703 10.967 15.4445 10.9681 15.4181 10.9714C13.4214 11.1983 11.6736 11.7868 10.356 12.6774C8.27197 14.1148 7.25384 16.073 7.15329 18.8566L7.14945 19.1148C7.14615 19.2423 7.1434 19.3665 7.1434 19.489C7.17637 23.4208 8.06923 25.0324 9.10219 26.8989L9.27417 27.2071C10.4451 29.228 11.5863 31.5604 11.5555 35.8714C11.5494 41.8099 12.6401 44.895 13.5588 46.4406C14.6319 48.2247 15.1698 48.7428 16.6731 48.7428C18.1165 48.7428 18.9692 47.4785 19.0637 46.2456C19.133 45.5423 19.1467 44.7236 19.1604 43.8582C19.1929 41.8533 19.2341 39.3577 19.9907 36.8077L20.0093 36.7445C20.3093 35.7599 20.683 34.5351 21.389 33.4719C21.8187 32.8258 22.7341 32.1302 23.7357 32.1302C24.5214 32.1302 25.194 32.5758 25.739 33.4522C26.4126 34.5384 26.8159 35.7066 27.1494 36.8022C27.9071 39.3494 28.2341 42.3005 28.0242 44.6961C27.8973 46.1615 28.1632 47.2664 28.8159 47.9802C29.3319 48.5428 30.0066 48.7439 30.4665 48.7439H30.4676C31.9357 48.7439 32.5588 48.1401 33.5786 46.439C34.4956 44.8983 35.5885 41.8148 35.583 35.8675C35.5544 31.5632 36.6945 29.2291 37.8753 27.1923L38.0335 26.906C39.067 25.0401 39.9588 23.428 39.9934 19.4835C39.9956 19.3445 39.9934 19.2022 39.9901 19.0538Z" fill="#F4F2E8"/>
<path d="M40.3841 19.0154L40.3802 18.822C40.2725 15.9209 39.2011 13.8648 36.9983 12.344C35.2198 11.1434 32.7225 10.4824 29.9676 10.4824H29.8918C27.6714 10.4824 25.3434 10.9352 23.6692 11.6912L23.5687 11.7363L23.4764 11.6951C22.1555 11.0945 20.4143 10.6841 18.5731 10.5374C18.5368 10.5346 18.4989 10.5335 18.4637 10.5341L15.4923 10.572C15.4527 10.5725 15.4132 10.5753 15.3736 10.5797C13.3154 10.8132 11.506 11.4242 10.1324 12.3528C7.93626 13.8687 6.86429 15.9242 6.75824 18.8533L6.7533 19.1077C6.7511 19.2385 6.7489 19.3643 6.7489 19.4923C6.78242 23.5247 7.69835 25.1775 8.75714 27.0901L8.93242 27.406C10.0764 29.3791 11.1907 31.6571 11.1615 35.8709C11.156 41.8989 12.2775 45.0539 13.222 46.6434C14.2637 48.3775 14.9049 49.1374 16.6742 49.1374C18.3582 49.1374 19.3505 47.689 19.456 46.2857C19.5275 45.5648 19.5412 44.739 19.5555 43.8637C19.5885 41.883 19.6286 39.4181 20.367 36.9236L20.3863 36.8615C20.6951 35.8522 21.044 34.7077 21.7187 33.6907C22.1027 33.1115 22.9203 32.5258 23.7363 32.5258C24.3753 32.5258 24.9368 32.9071 25.4038 33.6593C26.05 34.7027 26.4445 35.8451 26.7714 36.9143C27.5148 39.4159 27.8363 42.311 27.6302 44.6621C27.4934 46.2423 27.7945 47.4478 28.5253 48.2456C29.2841 49.0731 30.2038 49.1374 30.467 49.1374H30.4681C32.139 49.1374 32.8824 48.3681 33.9176 46.639C34.8604 45.056 35.9835 41.9022 35.978 35.8626C35.9506 31.6577 37.0654 29.3775 38.2209 27.3808L38.3791 27.0945C39.4385 25.1819 40.3522 23.5297 40.389 19.4824C40.3901 19.3324 40.3874 19.1769 40.3841 19.0154ZM36.3082 25.9484L36.1604 26.217C34.9099 28.3753 33.5791 31.0802 33.611 35.8731C33.6148 41.656 32.5302 44.3423 31.8846 45.4258C31.0896 46.7528 30.9412 46.7698 30.4857 46.7698C30.1692 46.7313 29.8813 46.1231 29.9901 44.8687C30.2247 42.1984 29.8786 39.0533 29.0401 36.2319C28.6632 35.0006 28.206 33.6846 27.417 32.4121C26.5148 30.9582 25.2077 30.1571 23.7368 30.1571C21.9989 30.1571 20.4797 31.2742 19.7451 32.3819C18.8802 33.6857 18.4593 35.0632 18.1214 36.1703L18.0995 36.2423C17.2659 39.0566 17.2225 41.7011 17.1879 43.8258C17.1747 44.6868 17.1621 45.4302 17.0978 46.0808C17.0973 46.0874 17.0181 46.7709 16.6747 46.7709C16.1071 46.7709 16.061 46.7709 15.256 45.4313C14.6093 44.3434 13.5258 41.6544 13.5302 35.8819C13.5648 31.0797 12.233 28.3769 10.9956 26.2423L10.8308 25.944C9.8533 24.1802 9.1467 22.9055 9.11868 19.4846C9.11868 19.3802 9.12088 19.2703 9.12308 19.1555L9.12692 18.9115C9.20549 16.7654 9.90824 15.3874 11.4687 14.3104C12.5066 13.6093 13.928 13.1363 15.5835 12.9412L18.4396 12.9055C19.9714 13.0324 21.4478 13.3769 22.5055 13.8582L23.0478 14.0989L26.9989 16.1962C27.1758 16.2901 27.3665 16.3346 27.5533 16.3346C27.9775 16.3346 28.389 16.106 28.6005 15.7055C28.9066 15.1275 28.6868 14.411 28.1093 14.1039L26.4962 13.2473C27.5621 12.9967 28.7522 12.8533 29.8923 12.8533H29.9681C32.2225 12.8533 34.3022 13.3846 35.6632 14.3028C37.2308 15.3852 37.933 16.7637 38.0126 18.8879L38.0159 19.061C38.0187 19.2077 38.0214 19.3473 38.0214 19.4736C37.9918 22.9082 37.2852 24.1835 36.3082 25.9484Z" fill="#3B6A75"/>
<path d="M47.3995 7.9961C43.9044 7.9961 43.8396 3.33182 43.8379 3.13621C43.8379 3.13457 43.8379 3.13237 43.8379 3.13017C43.8379 3.12962 43.8379 3.12852 43.8379 3.12797C43.8379 3.12577 43.8379 3.12303 43.8379 3.12028C43.8374 3.11918 43.8374 3.11863 43.8379 3.11863C43.8374 3.11753 43.8374 3.11698 43.8379 3.11698C43.8379 3.11643 43.8379 3.11588 43.8379 3.11534C43.8275 2.47083 43.3017 1.95215 42.6544 1.95215C42.0017 1.95215 41.472 2.48072 41.4703 3.13347C41.4692 3.33566 41.4028 7.9961 37.9082 7.9961C37.9066 7.9961 37.9055 7.9961 37.9039 7.9961C37.9033 7.9961 37.9022 7.9961 37.9011 7.9961H37.9006C37.9 7.9961 37.8995 7.9961 37.8984 7.9961C37.2478 8.0016 36.7231 8.53017 36.7231 9.18072C36.7231 9.83127 37.2484 10.3598 37.8989 10.3648C38.2731 10.3719 41.4703 10.5741 41.4703 15.2252C41.4703 15.8785 42.0011 16.4093 42.6544 16.4093C43.3077 16.4093 43.8379 15.8785 43.8379 15.2247C43.8379 10.5659 47.0445 10.3714 47.3995 10.3637C48.0528 10.3637 48.583 9.83347 48.583 9.18017C48.583 8.52632 48.0528 7.9961 47.3995 7.9961ZM42.6528 10.6467C42.2692 10.0565 41.817 9.58402 41.3363 9.21259C41.8747 8.77248 42.3088 8.23621 42.6528 7.6516C42.9984 8.23566 43.4319 8.77248 43.9698 9.21259C43.489 9.58402 43.0368 10.0565 42.6528 10.6467Z" fill="#99B3B7"/>
<path d="M23.1181 21.557C19.7225 21.557 19.6582 17.0163 19.6571 16.8257C19.6571 16.1729 19.1291 15.6449 18.4764 15.6438C18.4753 15.6438 18.4742 15.6438 18.4736 15.6438C17.8225 15.6438 17.2934 16.1713 17.2901 16.8229C17.289 17.0163 17.2247 21.557 13.828 21.557C13.1747 21.557 12.6445 22.0872 12.6445 22.7405C12.6445 23.3949 13.1747 23.9251 13.828 23.9251C13.9698 23.9251 17.2901 23.979 17.2901 28.6548C17.2901 29.3086 17.8203 29.8389 18.4736 29.8389C19.1269 29.8389 19.6571 29.3086 19.6571 28.6548C19.6571 24.1235 22.7742 23.9317 23.1181 23.9251C23.772 23.9251 24.3022 23.3949 24.3022 22.7405C24.3022 22.0872 23.7725 21.557 23.1181 21.557ZM18.4731 24.1284C18.1066 23.574 17.6791 23.1268 17.2247 22.7707C17.7313 22.3509 18.1434 21.8432 18.4731 21.2916C18.8033 21.8432 19.2148 22.3515 19.7214 22.7707C19.267 23.1268 18.839 23.574 18.4731 24.1284Z" fill="#99B3B7"/>
<path d="M9.17142 7.90166C7.15164 7.90166 7.07197 5.20495 7.06977 4.90221C7.06977 4.90056 7.06977 4.89946 7.06977 4.89836C7.06977 4.89726 7.06977 4.89561 7.06977 4.89451C7.06592 4.24341 6.53735 3.71704 5.8857 3.71704C5.23296 3.71704 4.70384 4.24506 4.70219 4.89726C4.69944 5.2066 4.61922 7.90111 2.60164 7.90111C1.94779 7.90111 1.41757 8.43133 1.41757 9.08572C1.41757 9.73957 1.94779 10.2703 2.60164 10.2703C2.81647 10.2703 4.70219 10.3539 4.70219 13.2681C4.70219 13.9225 5.23241 14.4528 5.8857 14.4528C6.53955 14.4528 7.06977 13.9225 7.06977 13.2687C7.06977 10.4725 8.83351 10.2802 9.17142 10.2703C9.82526 10.2703 10.3555 9.73957 10.3555 9.08572C10.356 8.43188 9.82581 7.90166 9.17142 7.90166ZM5.8857 9.47693C5.77307 9.34122 5.65439 9.21484 5.53186 9.09946C5.65878 8.96979 5.77691 8.83243 5.8857 8.68792C5.99504 8.83243 6.11318 8.96979 6.24065 9.09946C6.11812 9.21484 5.99944 9.34122 5.8857 9.47693Z" fill="#99B3B7"/>
<path d="M34.3681 21.9719C34.3461 21.9719 34.3242 21.9719 34.3016 21.9703C33.7209 21.9346 33.2802 21.4346 33.3159 20.8543C33.3758 19.8758 33.2961 18.0681 32.078 16.9609C31.6489 16.5703 31.6165 15.9038 32.0082 15.4736C32.4 15.0439 33.0654 15.012 33.4956 15.4033C34.8802 16.662 35.5626 18.6434 35.417 20.9846C35.3824 21.5428 34.9192 21.9719 34.3681 21.9719Z" fill="white"/>
</svg>
