<svg width="50" height="50" viewBox="0 0 50 50" fill="none" xmlns="http://www.w3.org/2000/svg">
<path d="M30.705 43.3688L25.0116 48.3639L19.3308 43.3688V25.5842H30.705V43.3688Z" fill="#9AE0FF"/>
<path d="M33.3231 21.2495H16.7126V25.5836H33.3231V21.2495Z" fill="white"/>
<path d="M39.3786 8.58406C39.2835 6.02636 38.2814 4.54944 36.7462 3.49065C35.2028 2.44889 33.0226 1.96043 30.8572 1.96538C28.8539 1.96043 26.877 2.38076 25.5456 2.98406L25.011 3.22362L24.4775 2.98351C23.4061 2.49505 21.9127 2.13735 20.3308 2.01318L17.5951 2.04724C15.9808 2.23186 14.4434 2.69999 13.2726 3.4912C11.7385 4.54999 10.7357 6.02856 10.644 8.58461C10.644 8.78625 10.6237 11.6088 12.9456 16.7637C14.1006 19.3264 14.6901 21.25 14.6901 21.25H35.3303C35.3303 21.25 36.1072 18.8632 37.0572 16.806C38.2918 14.1264 39.2176 11.6093 39.3896 9.15329C39.4028 8.97087 39.3814 8.78406 39.3786 8.58406Z" fill="#F4F2E8"/>
<path d="M16.461 29.5245L33.0729 33.2261L33.6114 30.8094L16.9995 27.1079L16.461 29.5245Z" fill="#3B6A75"/>
<path d="M31.9423 34.6308H29.4676V36.4896L20.5687 34.5055V32.0962H18.0929V33.9561L16.9522 33.7017L16.4132 36.1171L33.0231 39.8209L33.5616 37.405L31.9423 37.044V34.6308Z" fill="#3B6A75"/>
<path d="M29.4676 42.1302H20.5687V38.6973H18.0929V44.605H18.8638L24.2028 49.2934C24.4363 49.4995 24.7275 49.6017 25.0193 49.6017C25.3105 49.6017 25.6028 49.4995 25.8352 49.2934L31.172 44.605H31.9418V41.2308H29.4671V42.1302H29.4676ZM25.0193 46.7154L22.616 44.6055H27.4209L25.0193 46.7154Z" fill="#3B6A75"/>
<path d="M40.6225 8.73963C40.6198 8.68413 40.6165 8.62809 40.6154 8.53743C40.5149 5.82095 39.5088 3.89402 37.439 2.4649C35.7786 1.34457 33.4511 0.727539 30.8852 0.727539H30.8275C28.761 0.727539 26.5956 1.15007 25.0396 1.85501L25.0116 1.86655L24.9912 1.85776C23.7605 1.29677 22.1407 0.914352 20.4286 0.779737L20.3715 0.774792L17.5791 0.809407L17.4539 0.817649C15.5363 1.03688 13.85 1.60666 12.5682 2.47259C10.5088 3.89402 9.50332 5.82204 9.40497 8.58798C9.40442 9.3682 9.57695 12.3006 11.8171 17.272C12.922 19.7237 13.5 21.5935 13.5061 21.6127L13.7747 22.4869H15.4742V26.8204H18.0923V29.8874L31.9418 32.9726H31.9423V26.8204H34.5605V22.4869H35.3297H36.2286L36.5072 21.6325C36.5149 21.6089 37.2742 19.2874 38.1808 17.322C39.2753 14.9468 40.4215 12.1286 40.6231 9.24512C40.6352 9.08084 40.6308 8.91325 40.6225 8.73963ZM29.4676 29.8858L20.5687 27.9028V26.8209H29.4676V29.8858ZM32.0857 24.3462H31.9429H18.0929H17.9506H17.95V22.4869H32.0857V24.3462ZM35.933 16.2863C35.3083 17.6402 34.7621 19.1111 34.4451 20.0116H15.5813C15.2923 19.1863 14.7896 17.8429 14.0737 16.2556C11.9407 11.5204 11.8808 8.87589 11.8802 8.62809C11.9495 6.70776 12.5764 5.47644 13.9649 4.51765C14.8951 3.88908 16.1764 3.4638 17.6742 3.28523L20.289 3.25281C21.6791 3.3671 23.0176 3.67864 23.9704 4.11325L24.4786 4.34128L29.7995 7.14182C29.9835 7.23908 30.1797 7.28468 30.3748 7.28468C30.8198 7.28468 31.25 7.04402 31.4709 6.62314C31.7896 6.0182 31.5577 5.26985 30.9522 4.95171L28.1434 3.47369C29.0033 3.30117 29.9313 3.20281 30.8275 3.20281H30.8852C32.933 3.20281 34.8165 3.68193 36.0434 4.51051C37.4429 5.47534 38.0698 6.70776 38.1407 8.59732C38.1412 8.68743 38.1462 8.77424 38.15 8.86051C38.1533 8.92974 38.1605 8.99512 38.1544 9.06765C38.0154 11.049 37.3511 13.2078 35.933 16.2863Z" fill="#3B6A75"/>
<path d="M16.7627 13.0489C16.3989 13.0489 16.0423 12.8675 15.8335 12.5373C15.139 11.4445 15.089 9.93787 15.6995 8.5071C16.3671 6.94336 17.6363 5.83512 19.0945 5.54172C19.694 5.42139 20.2715 5.8082 20.3901 6.40325C20.5099 6.99886 20.1242 7.57963 19.528 7.69886C18.7918 7.84666 18.1006 8.48787 17.7237 9.37139C17.4028 10.1219 17.3912 10.8835 17.6918 11.3582C18.0176 11.8714 17.8654 12.5505 17.3528 12.8769C17.1687 12.9928 16.9649 13.0489 16.7627 13.0489Z" fill="white"/>
</svg>
