<svg width="50" height="50" viewBox="0 0 50 50" fill="none" xmlns="http://www.w3.org/2000/svg">
<path d="M23.967 5.64015C23.2104 4.67751 22.0687 4.09619 20.8192 4.09619C19.2808 4.09619 17.8978 4.96432 17.2071 6.36103L17.0533 6.67092H13.611V11.9923H21.2181C21.5434 9.60663 22.5198 7.42806 23.967 5.64015Z" fill="#FF889C"/>
<path d="M33.9978 26.6374C26.8852 26.6374 21.0973 20.8516 21.0973 13.739C21.0973 13.5258 21.1028 13.3159 21.1116 13.1066H12.4951V9.24561H5.19672V48.0429H36.0121C37.716 48.0429 39.1028 46.6566 39.1028 44.9511V25.583C37.5363 26.261 35.811 26.6374 33.9978 26.6374Z" fill="#F4F2E8"/>
<path d="M46.3407 13.7401C46.3407 20.5555 40.8137 26.0813 33.9978 26.0813C27.1846 26.0813 21.6544 20.5555 21.6544 13.7401C21.6544 6.92365 27.1835 1.39893 33.9978 1.39893C40.8137 1.39838 46.3407 6.92365 46.3407 13.7401Z" fill="#9AE0FF"/>
<path d="M12.1456 26.1786L11.5401 25.3L9.47528 26.7248L11.9747 30.3484L16.9786 24.2352L15.0368 22.6467L12.1456 26.1786Z" fill="#3B6A75"/>
<path d="M12.1456 33.2606L11.5401 32.3814L9.47418 33.8056L11.9747 37.432L16.9786 31.3144L15.0368 29.7271L12.1456 33.2606Z" fill="#3B6A75"/>
<path d="M12.1456 40.3433L11.5401 39.4642L9.47528 40.8895L11.9758 44.5148L16.9786 38.3961L15.0368 36.8076L12.1456 40.3433Z" fill="#3B6A75"/>
<path d="M29.2786 27.01H19.3181V29.5183H29.2786V27.01Z" fill="#3B6A75"/>
<path d="M34.1302 33.45H19.3181V35.9576H34.1302V33.45Z" fill="#3B6A75"/>
<path d="M34.1302 39.8857H19.3181V42.3934H34.1302V39.8857Z" fill="#3B6A75"/>
<path d="M47.594 13.7396C47.594 6.24233 41.4951 0.144531 33.9978 0.144531C30.417 0.144531 27.1577 1.53739 24.7264 3.80717C23.6731 2.84673 22.2994 2.28629 20.8192 2.28629C18.8582 2.28629 17.0703 3.25552 15.9879 4.86047H11.7983V7.43464H3.38571V49.8561H36.0126C38.7154 49.8561 40.9148 47.6555 40.9148 44.9517V25.4379C44.9093 23.0671 47.594 18.7116 47.594 13.7396ZM14.3066 7.36816H17.4852L17.8302 6.67036C18.4038 5.51376 19.5494 4.79453 20.8192 4.79453C21.6665 4.79453 22.4538 5.11981 23.0571 5.67695C21.85 7.30992 21.0022 9.22145 20.6242 11.2956H14.3066V7.36816ZM38.406 44.9517C38.406 46.2725 37.3319 47.3478 36.0126 47.3478H5.8945V9.94288H11.7989V13.8044H20.4022C20.4374 21.2715 26.5225 27.3357 33.9978 27.3357C35.5407 27.3357 37.0231 27.0737 38.406 26.5978V44.9517ZM33.9978 24.828C27.8835 24.828 22.9088 19.8539 22.9088 13.7401C22.9088 7.62695 27.8835 2.65277 33.9978 2.65277C40.1121 2.65277 45.0852 7.62695 45.0863 13.7401C45.0863 19.8544 40.1121 24.828 33.9978 24.828Z" fill="#3B6A75"/>
<path d="M40.2604 9.67531C40.2198 8.55937 39.7824 7.91816 39.1159 7.45663C38.444 7.00333 37.4923 6.78849 36.5494 6.79179C35.6764 6.78849 34.8176 6.97366 34.2346 7.23685L34.0011 7.34014L33.7703 7.23685C33.3038 7.02476 32.6544 6.86542 31.9643 6.81267L30.7764 6.82751C30.0736 6.90773 29.4016 7.11377 28.8918 7.45718C28.2225 7.91871 27.7852 8.56377 27.744 9.67586C27.744 9.76322 27.7418 9.84729 27.7418 9.92146C27.7549 11.4967 28.1159 12.0627 28.5506 12.8594C29.0016 13.6363 29.522 14.6357 29.5071 16.4852C29.506 18.6308 29.867 19.8907 30.267 20.5572C30.6676 21.2253 30.8033 21.3237 31.2412 21.3237C31.7077 21.3237 31.8648 20.8555 31.8852 20.6083C31.9736 19.7 31.8176 18.2808 32.2665 16.7676C32.3951 16.3495 32.5516 15.8248 32.8659 15.3506C33.2896 14.7116 34.4341 14.2127 35.1423 15.3506C35.4407 15.8346 35.6115 16.3495 35.7379 16.7676C36.083 17.9198 36.1808 19.1286 36.1 20.0473C35.9912 21.3275 36.7412 21.3237 36.7659 21.3237C37.1626 21.3237 37.3374 21.2253 37.7401 20.5572C38.1346 19.8912 38.4989 18.6308 38.4956 16.4852C38.4841 14.633 39.0022 13.6363 39.4533 12.8566C39.8907 12.0627 40.2489 11.4973 40.2637 9.92201C40.2648 9.84344 40.2637 9.76212 40.2604 9.67531Z" fill="#F4F2E8"/>
<path d="M36.767 22.577H36.7659C36.2703 22.577 35.7648 22.3495 35.4148 21.9682C34.9681 21.4819 34.778 20.8 34.8527 19.9413C34.9264 19.0836 34.8088 18.0319 34.5385 17.127C34.4253 16.7512 34.2907 16.3555 34.0769 16.0094C34.0588 15.9803 34.0429 15.9588 34.0308 15.9429C33.9901 15.966 33.9379 16.0072 33.9126 16.0435C33.7099 16.3506 33.5874 16.7457 33.4802 17.0929C33.2033 18.0248 33.1896 18.9138 33.1775 19.6984C33.1709 20.0649 33.1659 20.411 33.1346 20.7308C33.0615 21.6369 32.3885 22.5775 31.2434 22.5775C30.1088 22.5775 29.6429 21.9544 29.1929 21.2011C28.5698 20.1616 28.2555 18.5753 28.2566 16.4852C28.2681 14.8671 27.8066 14.0704 27.4681 13.4896L27.3835 13.3369C26.9527 12.5512 26.5049 11.7391 26.4901 9.93302L26.4923 9.67642C26.5456 8.22258 27.0984 7.17423 28.1808 6.42533C28.8445 5.97862 29.6885 5.69016 30.6357 5.58192C30.6775 5.57752 30.7192 5.57423 30.7615 5.57423L31.95 5.55939C31.9874 5.55829 32.0258 5.55939 32.0632 5.56324C32.7615 5.61763 33.4379 5.76159 34.0038 5.97697C34.739 5.6973 35.6412 5.53906 36.5286 5.53906C37.8242 5.54016 38.978 5.8517 39.8181 6.41873C40.9126 7.17752 41.4626 8.22588 41.5148 9.63247C41.5181 9.73961 41.5192 9.83357 41.5192 9.92313C41.5044 11.7484 41.0528 12.5605 40.6176 13.3473L40.5533 13.4638C40.2038 14.0687 39.7423 14.8671 39.7528 16.4781C39.756 18.5325 39.4341 20.1621 38.822 21.1968C38.3973 21.8979 37.894 22.577 36.767 22.577ZM30.8588 8.08027C30.3434 8.14675 29.8962 8.29346 29.5923 8.49785C29.2495 8.73522 29.0242 9.02697 28.9984 9.72258L28.9973 9.92148C29.0071 11.0841 29.211 11.4539 29.5808 12.1264L29.6533 12.2588C30.0363 12.9182 30.7808 14.1995 30.7637 16.494C30.7637 16.9143 30.7775 17.2869 30.8033 17.6171C30.8599 17.2292 30.9434 16.8231 31.0665 16.4094C31.0676 16.405 31.0824 16.3566 31.0846 16.3522C31.2258 15.894 31.4198 15.2649 31.8231 14.6577C32.322 13.9039 33.2055 13.4171 34.072 13.4171C34.9412 13.4171 35.7 13.8676 36.2099 14.688C36.5786 15.2852 36.7874 15.8913 36.9418 16.4055C37.0522 16.7731 37.1418 17.1544 37.211 17.5391C37.2335 17.2259 37.2456 16.8764 37.2456 16.4874C37.233 14.3781 37.8198 13.1825 38.3709 12.2297L38.4264 12.1297C38.7984 11.4583 39.0033 11.0885 39.0121 9.91104C39.0121 9.85664 39.011 9.78796 39.0088 9.71489C38.9846 9.02478 38.7681 8.74126 38.4038 8.48906C37.9989 8.21544 37.3099 8.04785 36.5731 8.04785C35.7654 8.04785 35.1104 8.21983 34.7522 8.38137L34.5148 8.48631C34.1901 8.63357 33.8176 8.63247 33.4912 8.48522L33.2604 8.38192C32.9198 8.22807 32.4247 8.11269 31.9231 8.06873L30.8588 8.08027Z" fill="#3B6A75"/>
<path d="M35.5978 9.44059C35.4 9.44059 35.1989 9.39389 35.0126 9.29554L33.4165 8.44993C32.8038 8.12466 32.5709 7.36532 32.895 6.75378C33.2187 6.14114 33.9775 5.90708 34.5901 6.23235L36.1863 7.07796C36.7989 7.40158 37.033 8.16147 36.7088 8.77301C36.4824 9.19719 36.0472 9.44059 35.5978 9.44059Z" fill="#3B6A75"/>
</svg>
