<svg width="50" height="50" viewBox="0 0 50 50" fill="none" xmlns="http://www.w3.org/2000/svg">
<path d="M25.0017 46.6213C36.0528 46.6213 45.0115 37.6626 45.0115 26.6115C45.0115 15.5603 36.0528 6.60156 25.0017 6.60156C13.9505 6.60156 4.99176 15.5603 4.99176 26.6115C4.99176 37.6626 13.9505 46.6213 25.0017 46.6213Z" fill="#9AE0FF"/>
<path d="M46.084 40.822L34.5252 34.7874H19.5176L1.3714 15.7825L5.15327 12.3022L21.6428 29.9709H35.8621L48.6285 36.5693L46.084 40.822Z" fill="#F4F2E8"/>
<path d="M14.4594 7.23892C16.3445 4.70486 19.928 4.17519 22.4643 6.05815C25.0011 7.94332 25.5291 11.5257 23.6456 14.0631L14.4594 7.23892Z" fill="#F4F2E8"/>
<path d="M39.228 42.613H13.2429V46.8284H39.228V42.613Z" fill="#68C1E0"/>
<path d="M49.7989 36.2362C49.7066 35.912 49.4868 35.6423 49.1879 35.489L40.445 30.9703V3.16973C40.445 2.4983 39.9 1.95435 39.228 1.95435H27.4786C27.2654 1.95435 27.0555 2.01094 26.8714 2.11588L22.4994 4.63566C21.4538 4.03402 20.2797 3.71369 19.0582 3.71369C16.8714 3.71369 14.7873 4.76039 13.4835 6.51314L12.7577 7.48951L23.8983 15.7659L24.6236 14.7895C26.5423 12.2043 26.384 8.71588 24.4588 6.31479L27.8044 4.38676H38.0121V29.7131L36.4209 28.8912C36.2483 28.801 36.0566 28.7554 35.8621 28.7554H28.7275L30.1928 25.7653H34.8615V23.3329H22.3659V25.7653H27.4829L26.0176 28.7554H22.1714L6.04284 11.4714C5.58679 10.9829 4.82196 10.9532 4.32965 11.4071L0.547232 14.8879C0.307122 15.1087 0.165913 15.4164 0.155474 15.7428C0.144485 16.0703 0.265364 16.3873 0.491188 16.6236L18.6373 35.628C18.6983 35.6923 18.767 35.7478 18.8395 35.7961V41.3972H12.0264V48.0456H40.445V41.3972H32.9159V36.0043H34.2264L45.522 41.901C45.7005 41.9945 45.8939 42.039 46.083 42.039C46.4989 42.039 46.9005 41.8263 47.128 41.4467L49.6725 37.1939C49.8461 36.9054 49.8912 36.5593 49.7989 36.2362ZM23.2604 12.2609L16.2939 7.08566C17.0731 6.47962 18.0351 6.14665 19.0571 6.14665C20.0291 6.14665 20.956 6.4538 21.7384 7.03511C23.3945 8.26478 23.9632 10.4225 23.2604 12.2609ZM38.0126 43.8296V45.6126H14.4588V43.8296H18.8395V43.8302H32.9159V43.8296H38.0126ZM21.2725 41.3972V36.0054H30.4835V41.3972H21.2725ZM45.6297 39.2126L35.0873 33.7098C34.9137 33.6186 34.7203 33.5719 34.5247 33.5719H20.0384L3.10657 15.839L5.08789 14.0159L20.7527 30.8016C20.9829 31.0483 21.3049 31.1884 21.6423 31.1884H35.5654L46.9203 37.056L45.6297 39.2126Z" fill="#3B6A75"/>
</svg>
