<svg width="67" height="67" viewBox="0 0 67 67" fill="none" xmlns="http://www.w3.org/2000/svg">
<path d="M33.5022 62.4727C48.3108 62.4727 60.3155 50.468 60.3155 35.6594C60.3155 20.8509 48.3108 8.84619 33.5022 8.84619C18.6937 8.84619 6.68896 20.8509 6.68896 35.6594C6.68896 50.468 18.6937 62.4727 33.5022 62.4727Z" fill="#9AE0FF"/>
<path d="M61.7526 54.7015L46.2639 46.6151H26.1536L1.83771 21.1485L6.90541 16.485L29.0014 40.161H48.0552L65.1623 49.0028L61.7526 54.7015Z" fill="#F4F2E8"/>
<path d="M19.3755 9.70033C21.9017 6.30468 26.7036 5.59492 30.1022 8.11809C33.5015 10.6442 34.2091 15.4447 31.6851 18.8447L19.3755 9.70033Z" fill="#F4F2E8"/>
<path d="M52.5656 57.1016H17.7455V62.7502H52.5656V57.1016Z" fill="#68C1E0"/>
<path d="M66.7306 48.5566C66.6069 48.1222 66.3124 47.7607 65.9118 47.5553L54.1964 41.5003V4.24751C54.1964 3.3478 53.466 2.6189 52.5656 2.6189H36.8213C36.5356 2.6189 36.2544 2.69473 36.0077 2.83536L30.1493 6.21186C28.7482 5.40566 27.1748 4.97641 25.5381 4.97641C22.6077 4.97641 19.8151 6.379 18.0679 8.72768L17.0953 10.036L32.0238 21.1264L32.9957 19.818C35.5667 16.3539 35.3547 11.6794 32.7748 8.46189L37.2579 5.87834H50.9362V39.8157L48.804 38.7142C48.5728 38.5935 48.3159 38.5324 48.0552 38.5324H38.4948L40.4585 34.5256H46.7145V31.2662H29.9704V34.5256H36.8272L34.8636 38.5324H29.7097L8.09745 15.3717C7.48635 14.7172 6.46147 14.6774 5.80178 15.2856L0.733337 19.9498C0.41159 20.2458 0.22237 20.6581 0.208381 21.0954C0.193656 21.5343 0.355634 21.9591 0.658239 22.2757L24.9741 47.7416C25.0558 47.8277 25.1478 47.9021 25.245 47.9669V55.4723H16.1154V64.3811H54.1964V55.4723H44.1074V48.2459H45.8634L60.9995 56.1475C61.2388 56.2727 61.4979 56.3323 61.7512 56.3323C62.3085 56.3323 62.8468 56.0474 63.1516 55.5386L66.5612 49.8399C66.7939 49.4534 66.8542 48.9895 66.7306 48.5566ZM31.169 16.4297L21.8339 9.49486C22.8779 8.68277 24.1671 8.23659 25.5366 8.23659C26.839 8.23659 28.0811 8.64816 29.1296 9.42713C31.3487 11.0749 32.1107 13.9662 31.169 16.4297ZM50.937 58.7318V61.1209H19.3748V58.7318H25.245V58.7325H44.1074V58.7318H50.937ZM28.5052 55.4723V48.2474H40.8479V55.4723H28.5052ZM61.1438 52.5449L47.0171 45.1713C46.7844 45.049 46.5253 44.9865 46.2632 44.9865H26.8516L4.16285 21.2243L6.81782 18.7814L27.8087 41.2742C28.1172 41.6048 28.5486 41.7925 29.0007 41.7925H47.6576L62.8733 49.6551L61.1438 52.5449Z" fill="#3B6A75"/>
</svg>
