<svg width="68" height="67" viewBox="0 0 43 67" fill="none" xmlns="http://www.w3.org/2000/svg">
<path d="M29.1447 58.1141L21.5155 64.8075L13.9033 58.1141V34.2827H29.1447V58.1141Z" fill="#9AE0FF"/>
<path d="M32.6529 28.4743H10.395V34.2819H32.6529V28.4743Z" fill="white"/>
<path d="M40.7673 11.5026C40.64 8.07533 39.297 6.09625 37.2399 4.67747C35.1717 3.28152 32.2502 2.62698 29.3486 2.6336C26.6642 2.62698 24.0151 3.19022 22.2312 3.99864L21.5148 4.31965L20.7999 3.9979C19.3641 3.34336 17.363 2.86405 15.2433 2.69766L11.5774 2.74331C9.41428 2.99069 7.35421 3.61799 5.78523 4.67821C3.72959 6.09699 2.3859 8.07827 2.26295 11.5034C2.26295 11.7736 2.23571 15.5558 5.34716 22.4634C6.89478 25.8973 7.68479 28.475 7.68479 28.475H35.3425C35.3425 28.475 36.3836 25.2767 37.6566 22.5201C39.311 18.9293 40.5516 15.5565 40.7821 12.2654C40.7997 12.021 40.771 11.7706 40.7673 11.5026Z" fill="#F4F2E8"/>
<path d="M10.0578 39.5628L32.3177 44.5229L33.0393 41.2846L10.7793 36.3245L10.0578 39.5628Z" fill="#3B6A75"/>
<path d="M30.8027 46.4052H27.4866V48.896L15.5621 46.2374V43.0089H12.2445V45.5011L10.716 45.1602L9.99371 48.3968L32.251 53.36L32.9725 50.1226L30.8027 49.6389V46.4052Z" fill="#3B6A75"/>
<path d="M27.4866 56.4545H15.5621V51.8544H12.2444V59.7707H13.2774L20.4317 66.0532C20.7446 66.3293 21.1348 66.4663 21.5258 66.4663C21.916 66.4663 22.3077 66.3293 22.6191 66.0532L29.7705 59.7707H30.802V55.2493H27.4858V56.4545H27.4866ZM21.5258 62.5987L18.3054 59.7714H24.744L21.5258 62.5987Z" fill="#3B6A75"/>
<path d="M42.4342 11.7111C42.4305 11.6367 42.4261 11.5616 42.4246 11.4401C42.2899 7.80002 40.9418 5.21794 38.1683 3.30292C35.9433 1.80168 32.8245 0.974854 29.3862 0.974854H29.3088C26.5398 0.974854 23.6381 1.54104 21.553 2.48567L21.5155 2.50113L21.4883 2.48935C19.839 1.73762 17.6685 1.22518 15.3743 1.0448L15.2977 1.03817L11.5561 1.08456L11.3882 1.0956C8.81863 1.38937 6.55904 2.15288 4.84133 3.31323C2.08182 5.21794 0.734454 7.80149 0.602663 11.5078C0.601927 12.5533 0.833113 16.4828 3.83486 23.1445C5.31549 26.4297 6.09004 28.9352 6.09813 28.961L6.45817 30.1324H8.73543V35.9393H12.2437V40.0491L30.802 44.1832H30.8027V35.9393H34.311V30.1324H35.3418H36.5463L36.9196 28.9875C36.9299 28.9558 37.9474 25.8451 39.1623 23.2115C40.6289 20.0286 42.1647 16.2523 42.435 12.3884C42.4512 12.1683 42.4453 11.9437 42.4342 11.7111ZM27.4866 40.0469L15.5621 37.3897V35.94H27.4866V40.0469ZM30.9949 32.6239H30.8035H12.2445H12.0538H12.053V30.1324H30.9949V32.6239ZM36.1502 21.8236C35.3131 23.6378 34.5812 25.6088 34.1564 26.8155H8.879C8.49173 25.7096 7.81805 23.9095 6.8587 21.7824C4.00052 15.4373 3.92027 11.8936 3.91953 11.5616C4.0123 8.98835 4.85238 7.33838 6.71291 6.0536C7.95941 5.21132 9.67638 4.64145 11.6834 4.40216L15.1873 4.35872C17.0501 4.51186 18.8436 4.92933 20.1203 5.51171L20.8013 5.81726L27.9313 9.57C28.1779 9.70032 28.4408 9.76143 28.7022 9.76143C29.2985 9.76143 29.875 9.43894 30.171 8.87496C30.598 8.06434 30.2873 7.06155 29.476 6.63525L25.7122 4.6547C26.8645 4.42351 28.108 4.29172 29.3088 4.29172H29.3862C32.1302 4.29172 34.6541 4.93374 36.2982 6.04403C38.1735 7.33691 39.0135 8.98835 39.1085 11.5204C39.1093 11.6411 39.1159 11.7574 39.121 11.873C39.1255 11.9658 39.135 12.0534 39.1269 12.1506C38.9407 14.8056 38.0505 17.6983 36.1502 21.8236Z" fill="#3B6A75"/>
<path d="M10.462 17.4855C9.97458 17.4855 9.49674 17.2426 9.21696 16.8001C8.28632 15.3356 8.21932 13.3168 9.03731 11.3996C9.93187 9.30415 11.6326 7.81911 13.5867 7.42595C14.3899 7.2647 15.1638 7.78303 15.3228 8.58041C15.4833 9.37852 14.9664 10.1567 14.1676 10.3165C13.181 10.5146 12.2548 11.3738 11.7497 12.5577C11.3197 13.5634 11.3043 14.5839 11.707 15.22C12.1436 15.9077 11.9397 16.8177 11.2527 17.2551C11.0061 17.4104 10.7329 17.4855 10.462 17.4855Z" fill="white"/>
</svg>
