<svg width="67" height="67" viewBox="0 0 67 67" fill="none" xmlns="http://www.w3.org/2000/svg">
<path d="M61.3786 15.1751L61.3712 14.7451C61.1968 10.0816 59.4842 6.78318 55.9693 4.35645C53.0699 2.40241 48.977 1.32526 44.3753 1.32526H44.2929C40.6219 1.32526 36.78 2.07036 34.0279 3.31759L33.4985 3.55025L32.9809 3.32127C30.8465 2.34866 27.8948 1.65289 24.8857 1.41287C24.8503 1.40993 24.8135 1.40772 24.7797 1.40919L19.698 1.47619C19.659 1.47693 19.6199 1.47914 19.5824 1.48429C16.2 1.86715 13.2402 2.86258 11.016 4.3675C7.50913 6.78539 5.79584 10.0831 5.61914 14.7819L5.61399 15.2738C5.61031 15.4726 5.60736 15.6625 5.60736 15.8517C5.66258 22.5311 7.18002 25.2678 8.93527 28.4345L9.22389 28.9528C11.2405 32.4361 13.2012 36.4553 13.1482 43.8607C13.1386 53.9747 14.991 59.2155 16.5482 61.8388C18.3374 64.8147 19.2312 65.6784 21.7058 65.6784C24.3283 65.6784 25.4732 63.2163 25.5999 61.5848C25.7147 60.3935 25.7383 59.0027 25.7633 57.5309C25.8171 54.0867 25.8863 49.8016 27.1865 45.4083L27.227 45.2773C27.7461 43.5897 28.391 41.4884 29.6044 39.6566C30.3664 38.508 31.9965 37.2748 33.7783 37.2748C35.1941 37.2748 36.4023 38.0656 37.3713 39.6272C38.5316 41.498 39.2259 43.5095 39.8024 45.398C41.1048 49.7744 41.6674 54.8502 41.3073 58.9732C41.0938 61.4206 41.5304 63.2568 42.6105 64.4356C43.6958 65.6173 45.0321 65.6784 45.2905 65.6784H45.292C47.5523 65.6784 48.6125 64.8906 50.4458 61.8329C51.9993 59.2199 53.8525 53.9799 53.8459 43.8526C53.7951 36.4553 55.758 32.4331 57.7871 28.9278L58.0544 28.4433C59.8082 25.2752 61.3256 22.5385 61.386 15.8422C61.3874 15.6235 61.383 15.4034 61.3786 15.1751Z" fill="#F4F2E8"/>
<path d="M61.9617 15.2105L61.9529 14.7223C61.7718 9.86448 59.979 6.42097 56.2962 3.87571C53.3011 1.85761 49.0941 0.74585 44.379 0.74585H44.2936C40.5446 0.74585 36.6144 1.51156 33.7967 2.78677L33.5 2.91709L33.2239 2.79414C30.9989 1.7803 28.0546 1.08453 24.9365 0.834937C24.8835 0.83052 24.8275 0.828311 24.7745 0.829784L19.6921 0.896784C19.6339 0.89752 19.5758 0.900465 19.5198 0.907091C16.0439 1.30099 12.9951 2.32882 10.6898 3.8897C7.02101 6.4195 5.22747 9.86227 5.04635 14.7658L5.03899 15.1958C5.03457 15.4211 5.03015 15.6368 5.03015 15.854C5.08832 22.6696 6.63521 25.4637 8.42506 28.6981L8.72472 29.24C10.7001 32.6526 12.6247 36.5901 12.5732 43.8563C12.5643 54.1014 14.4595 59.4452 16.0564 62.1348C17.8176 65.0607 18.8218 66.2534 21.7073 66.2534C24.4035 66.2534 25.9989 63.9151 26.1786 61.6385C26.2979 60.4222 26.32 59.0196 26.3435 57.5346C26.398 54.1264 26.4665 49.8863 27.7417 45.5747L27.777 45.4614C28.2836 43.8055 28.9145 41.7425 30.0874 39.9747C30.7876 38.9189 32.2822 37.8499 33.7812 37.8499C34.9821 37.8499 36.0261 38.55 36.8831 39.9298C38.0096 41.744 38.6884 43.7135 39.2502 45.5615C40.5335 49.8716 41.0879 54.8657 40.7323 58.9217C40.5055 61.5377 40.9952 63.5234 42.1886 64.8244C43.4042 66.1511 44.8708 66.2542 45.292 66.2542H45.2935C48.025 66.2542 49.1957 65.0393 50.9443 62.1259C52.5361 59.4474 54.432 54.1051 54.4261 43.8475C54.3775 36.596 56.3028 32.6526 58.2981 29.2039L58.5654 28.7195C60.3582 25.4828 61.908 22.688 61.9698 15.8385C61.9698 15.6346 61.9654 15.4262 61.9617 15.2105ZM55.5342 27.0415L55.2794 27.5024C53.1612 31.1639 50.9067 35.7515 50.9605 43.8622C50.9664 53.8187 49.0874 58.4704 47.9691 60.3516C46.5135 62.7768 46.2042 62.7901 45.3104 62.7901C45.2559 62.7856 44.971 62.7488 44.7199 62.4565C44.4438 62.1377 44.0072 61.2925 44.1861 59.2265C44.5837 54.6919 43.9962 49.354 42.57 44.5668C41.9376 42.4839 41.1667 40.2574 39.8289 38.1076C38.3409 35.7081 36.194 34.3872 33.7835 34.3872C30.9223 34.3872 28.4154 36.2338 27.2027 38.0626C25.7501 40.2523 25.0389 42.5796 24.466 44.4505L24.4263 44.5786C23.0127 49.3599 22.9398 53.8636 22.8823 57.4816C22.8595 58.9571 22.8396 60.2271 22.7307 61.3345C22.7292 61.3499 22.59 62.7915 21.7102 62.7915C20.636 62.7915 20.4983 62.7915 19.0332 60.3582C17.9133 58.4704 16.0329 53.8172 16.0402 43.8732C16.0991 35.7486 13.844 31.1646 11.7449 27.5385L11.4592 27.0216C9.77022 23.9683 8.54728 21.7625 8.49722 15.8407C8.49722 15.6589 8.50163 15.4667 8.50532 15.2642L8.51194 14.8519C8.6511 11.0756 9.89244 8.65111 12.6468 6.75303C14.3019 5.63243 16.5173 4.85126 19.0832 4.46619L25.8686 11.4548H18.1423C17.4568 11.4548 16.8361 11.8575 16.5593 12.4841C16.281 13.1099 16.3981 13.841 16.8575 14.3483L26.2905 24.7827C26.6321 25.1618 27.1033 25.354 27.5768 25.354C27.9905 25.354 28.4065 25.206 28.7393 24.9078C29.4491 24.2665 29.505 23.1702 28.8623 22.4612L22.0459 14.9197H29.9659C30.6617 14.9197 31.2905 14.5037 31.5614 13.8624C31.8324 13.2204 31.6932 12.4804 31.2087 11.9805L23.7592 4.3101L24.7407 4.29685C27.4008 4.51773 29.9652 5.11852 31.8044 5.95639L32.7424 6.37238L39.5028 9.96093C39.7612 10.0986 40.0395 10.1627 40.3134 10.1627C40.9333 10.1627 41.5341 9.82914 41.8455 9.24233C42.2939 8.39637 41.9729 7.34793 41.127 6.89954L37.7063 5.08392C39.7317 4.53466 42.0878 4.21144 44.3709 4.21144H44.3717C44.3724 4.21144 44.449 4.21144 44.4504 4.21144C48.3549 4.21144 51.967 5.13693 54.3444 6.73904C57.1098 8.65038 58.3496 11.0771 58.4903 14.8055L58.4976 15.2768C58.5013 15.4704 58.5057 15.6567 58.5057 15.8253C58.4498 21.7794 57.2268 23.9868 55.5342 27.0415Z" fill="#3B6A75"/>
<path d="M53.0206 20.5271C52.9131 20.5271 52.8041 20.516 52.6944 20.4925C51.8639 20.3135 51.3345 19.4948 51.5135 18.6628C52.7577 12.8979 47.8726 10.7083 47.6628 10.6177C46.8853 10.2805 46.5223 9.37709 46.8551 8.59886C47.1872 7.81842 48.0861 7.45249 48.8644 7.7816C51.4494 8.86759 55.9575 12.6748 54.5248 19.3122C54.3694 20.0338 53.7311 20.5271 53.0206 20.5271Z" fill="white"/>
</svg>
