<svg width="67" height="67" viewBox="0 0 67 67" fill="none" xmlns="http://www.w3.org/2000/svg">
<path d="M64.0174 24.9284C64.0174 24.9284 45.4105 18.7857 41.9324 18.665C38.4529 18.5443 34.304 20.3533 33.5007 23.0031C33.5007 23.0031 31.7624 18.6606 25.7398 18.6606C19.7157 18.6606 2.98187 24.3298 2.98187 24.3298C2.98187 24.3298 12.7587 28.6966 33.3675 28.6966C53.9777 28.6966 64.0174 24.9284 64.0174 24.9284Z" fill="#FF889C"/>
<path d="M33.567 36.2543C17.7697 35.7743 2.38182 24.6891 2.38182 24.6891C2.38182 24.6891 15.8981 47.8262 32.7667 47.8262C49.6279 47.8262 64.6204 25.5314 64.6204 25.5314C64.6204 25.5314 49.3606 36.7395 33.567 36.2543Z" fill="#FF889C"/>
<path d="M26.6572 51.8198C26.6572 51.8198 33.4109 55.4702 40.3458 51.8198H26.6572Z" fill="#FF889C"/>
<path d="M65.7351 24.3703C65.6306 24.2702 65.5135 24.1929 65.392 24.1259C65.1976 23.7946 64.9024 23.5266 64.521 23.4007C62.5949 22.7638 45.5917 17.1815 41.9877 17.0563C39.0139 16.9672 35.4967 18.076 33.4544 20.1251C32.0893 18.668 29.6854 17.0504 25.739 17.0504C19.522 17.0504 3.15857 22.5687 2.46575 22.8051C2.24708 22.8794 2.06449 23.0083 1.90103 23.1585C1.68236 23.2269 1.47474 23.3366 1.29656 23.4986C0.734057 24.0096 0.606683 24.846 0.98954 25.502C1.56088 26.479 15.1759 49.4372 32.7652 49.4372C50.2839 49.4372 65.3243 27.3699 65.9552 26.4304C66.3926 25.781 66.2991 24.9122 65.7351 24.3703ZM25.7398 20.2701C30.527 20.2701 31.9531 23.4802 32.0047 23.5995C32.2601 24.2349 32.8941 24.6619 33.5692 24.6111C34.2532 24.5809 34.8429 24.1237 35.0425 23.4692C35.5667 21.7411 38.9027 20.1633 41.8765 20.2745C43.7525 20.3408 51.5039 22.6225 58.3239 24.7812C53.4667 25.8252 45.1565 27.0864 33.3675 27.0864C21.2824 27.0864 12.9568 25.5454 8.25573 24.3262C13.5907 22.6733 21.9863 20.2716 25.7398 20.2701ZM56.7461 28.3984C51.1873 31.303 42.9536 34.6596 34.5676 34.6596C34.2495 34.6596 33.9337 34.6537 33.6141 34.6442C25.7096 34.4041 17.8272 31.3597 12.0828 28.4971C17.1336 29.4587 24.1877 30.3076 33.3667 30.3076C43.8232 30.3083 51.5782 29.3578 56.7461 28.3984ZM32.7659 46.216C22.4398 46.216 13.2388 36.6954 8.09522 30.0845C14.1849 33.4006 23.7077 37.5671 33.5162 37.8646C42.7482 38.1503 51.6658 34.667 57.7503 31.5393C52.0634 37.8543 42.6621 46.216 32.7659 46.216Z" fill="#3B6A75"/>
<path d="M39.5948 50.3943C33.5456 53.5786 27.6754 50.5371 27.4185 50.4002C26.6366 49.9805 25.661 50.2713 25.2391 51.054C24.8165 51.8359 25.1073 52.8144 25.8915 53.237C26.0917 53.3474 29.3394 55.06 33.7113 55.06C35.9621 55.06 38.511 54.6057 41.096 53.2458C41.8816 52.8313 42.1842 51.8572 41.769 51.0694C41.3574 50.2824 40.3811 49.9805 39.5948 50.3943Z" fill="#3B6A75"/>
<path d="M14.5 23.3257C14.5 23.3257 23.9912 20.3416 26.5828 21.2958C26.5828 21.2958 29.893 21.7736 30.9658 24.0406C30.9665 24.0398 27.216 21.0042 14.5 23.3257Z" fill="white"/>
<path d="M49.8406 37.7629C49.8406 37.7629 35.2148 44.9695 20.5859 40.9841C20.5859 40.9841 33.5015 51.8197 49.8406 37.7629Z" fill="#F16B72"/>
</svg>
