<svg width="67" height="67" viewBox="0 0 67 67" fill="none" xmlns="http://www.w3.org/2000/svg">
<path d="M30.8649 18.4073C29.3283 17.3721 27.1571 16.8847 25.0013 16.8899C23.0046 16.884 21.0373 17.3015 19.7105 17.9023L19.1811 18.1401L18.6474 17.9023C17.5812 17.4185 16.0925 17.0622 14.5199 16.9363L11.7957 16.9687C10.1877 17.1527 8.65552 17.6188 7.49001 18.4059C5.96153 19.4602 4.96168 20.9327 4.87186 23.4787C4.87186 23.679 4.86302 23.8689 4.86302 24.0442C4.88879 27.643 5.71341 28.9396 6.71325 30.7545C7.74991 32.5399 8.93309 34.8209 8.9029 39.0478C8.89701 43.9535 9.72752 46.833 10.6346 48.3585C11.5498 49.887 11.8612 50.1094 12.8618 50.1094C13.925 50.1094 14.2909 49.0447 14.3336 48.4808C14.5405 46.4023 14.1812 43.1583 15.2105 39.6957C15.2105 39.6957 15.9313 36.8839 19.1819 37.0311C22.3051 37.1725 23.1474 39.6964 23.1474 39.6964C23.9345 42.3315 24.162 45.0873 23.9772 47.1923C23.7195 50.1219 25.4394 50.1101 25.4968 50.1101C26.4054 50.1101 26.8015 49.887 27.7211 48.3593C28.6274 46.8345 29.4579 43.955 29.455 39.0485C29.4277 34.8164 30.608 32.5407 31.6446 30.7552C32.643 28.9381 33.4661 27.643 33.4978 24.0449C33.4978 23.8638 33.4875 23.6797 33.4838 23.4795C33.391 20.9327 32.3941 19.4617 30.8649 18.4073Z" fill="#F4F2E8"/>
<path d="M62.1208 23.4802C62.0287 20.9327 61.0304 19.4617 59.5004 18.4073C57.9638 17.3721 55.7926 16.8847 53.6376 16.8899C51.6401 16.884 49.6728 17.3015 48.3468 17.9023L47.8159 18.1401L47.2807 17.9023C46.2168 17.4185 44.728 17.0622 43.1546 16.9363L40.4305 16.9687C38.8225 17.1527 37.2903 17.6188 36.1263 18.4059C34.5985 19.4602 33.5965 20.9327 33.5074 23.4787C33.5074 23.679 33.4971 23.8689 33.4971 24.0442C33.5236 27.643 34.3467 28.9396 35.3488 30.7545C36.3847 32.5399 37.5693 34.8209 37.5377 39.0478C37.5333 43.9535 38.3623 46.833 39.2694 48.3585C40.186 49.887 40.496 50.1094 41.4973 50.1094C42.5597 50.1094 42.9257 49.0447 42.9684 48.4808C43.1752 46.4023 42.8174 43.1583 43.8445 39.6957C43.8445 39.6957 44.5653 36.8839 47.8159 37.0311C50.9406 37.1725 51.7836 39.6964 51.7836 39.6964C52.5692 42.3315 52.7945 45.0873 52.6134 47.1923C52.3542 50.1219 54.0742 50.1101 54.1316 50.1101C55.0423 50.1101 55.4399 49.887 56.3573 48.3593C57.2629 46.8345 58.0942 43.955 58.0912 39.0485C58.0632 34.8164 59.2457 32.5407 60.2809 30.7552C61.28 28.9381 62.1002 27.643 62.1333 24.0449C62.134 23.8638 62.1259 23.6797 62.1208 23.4802Z" fill="#F4F2E8"/>
<path d="M23.0428 25.1618H15.3747V32.83H23.0428V25.1618Z" fill="#99B3B7"/>
<path d="M51.6761 25.1618H44.0072V32.83H51.6761V25.1618Z" fill="#99B3B7"/>
<path d="M65.0644 27.5016H63.2708C63.4807 26.5725 63.6132 25.46 63.6257 24.0463C63.6257 23.9197 63.6228 23.7916 63.6183 23.6576L63.6132 23.4271C63.5116 20.6684 62.444 18.6245 60.3346 17.1711C58.6397 16.0277 56.2756 15.3982 53.6788 15.3982H53.5926C51.5377 15.3982 49.3842 15.8127 47.8144 16.5055C46.5738 15.9578 44.9673 15.5837 43.2732 15.4497C43.2283 15.4461 43.1819 15.4431 43.1384 15.4453L40.4135 15.477C40.3627 15.4777 40.3104 15.4807 40.2596 15.4865C38.3056 15.7104 36.5872 16.2935 35.2788 17.1792C34.5602 17.674 33.9727 18.2446 33.4934 18.8859C33.0126 18.2431 32.4206 17.6696 31.6984 17.1704C30.0013 16.027 27.6371 15.3982 25.0411 15.3982H24.9549C22.903 15.3982 20.7509 15.812 19.1782 16.5048C17.9354 15.957 16.3281 15.5837 14.6362 15.4497C14.5913 15.4461 14.5471 15.4431 14.5007 15.4453L11.7773 15.477C11.7257 15.4777 11.6742 15.4807 11.6234 15.4865C9.67009 15.7104 7.95165 16.2935 6.6411 17.1785C4.54275 18.6252 3.4759 20.6698 3.37798 23.4816L3.37356 23.7482C3.37135 23.852 3.36841 23.9506 3.36841 24.0567C3.37871 25.4659 3.50977 26.5747 3.7196 27.5024H1.9349C1.11028 27.5024 0.441757 28.1709 0.441757 28.9948C0.441757 29.8194 1.11028 30.4879 1.9349 30.4879H4.86597C4.99334 30.7287 5.12439 30.9658 5.25619 31.2043L5.42332 31.5054C6.44452 33.2629 7.437 35.2928 7.41049 39.047C7.40239 44.6639 8.46114 47.6259 9.35349 49.1257C10.276 50.6674 10.9725 51.6025 12.8633 51.6025C14.6612 51.6025 15.7155 50.0865 15.8216 48.628C15.8886 47.9499 15.9011 47.1834 15.9143 46.3721C15.9445 44.4917 15.9777 42.3609 16.6535 40.0888C16.7316 39.8179 17.2389 38.4425 19.1164 38.5242C21.0255 38.6104 21.6358 39.9298 21.7316 40.1698C22.3905 42.397 22.6747 44.9702 22.4914 47.0597C22.353 48.6258 22.6629 49.8355 23.4132 50.6527C24.2201 51.5347 25.2104 51.6025 25.4968 51.6025H25.4983C27.2123 51.6025 27.995 50.8044 29.0058 49.1235C29.8945 47.6296 30.9533 44.6684 30.9488 39.0411C30.9268 35.2928 31.9192 33.2636 32.9559 31.4767L33.1068 31.2021C33.2379 30.9643 33.3682 30.7279 33.4956 30.4879H33.5007C33.6296 30.7309 33.7614 30.9702 33.8954 31.2102L34.0603 31.5047C35.0808 33.2644 36.0747 35.2935 36.0475 39.047C36.0416 44.6654 37.1003 47.6259 37.9912 49.1257C38.916 50.6667 39.6125 51.6017 41.501 51.6017C43.296 51.6017 44.3496 50.088 44.46 48.6272C44.527 47.9491 44.5381 47.182 44.5528 46.3699C44.5837 44.4894 44.6176 42.3594 45.2964 40.066C45.3134 40.0012 45.7514 38.4307 47.7533 38.5228C49.6639 38.6089 50.2736 39.9283 50.3693 40.1676C51.026 42.3911 51.3095 44.9643 51.1284 47.0583C50.9907 48.6243 51.3014 49.834 52.0509 50.6512C52.8578 51.5333 53.8481 51.601 54.1331 51.601H54.1345C55.853 51.601 56.6341 50.8029 57.645 49.1213C58.5337 47.6267 59.5932 44.6639 59.5902 39.0381C59.5659 35.2942 60.5165 33.3373 61.5936 31.4752L61.7409 31.2095C61.8741 30.9687 62.0052 30.7301 62.134 30.4872H65.068C65.8927 30.4872 66.5612 29.8187 66.5612 28.994C66.5575 28.1702 65.889 27.5016 65.0644 27.5016ZM34.9961 23.8211C34.9983 23.7113 35.0005 23.5972 34.9998 23.5317C35.0808 21.2456 36.0431 20.2789 36.9634 19.645C37.8498 19.0464 39.0801 18.6385 40.5276 18.4633L43.1031 18.4331C44.4549 18.5465 45.75 18.8483 46.6754 19.2673L47.1547 19.4808L50.7632 21.398C50.9877 21.5165 51.227 21.5718 51.4626 21.5718C51.9986 21.5718 52.5148 21.2831 52.7827 20.7795C53.1693 20.0506 52.8925 19.1458 52.1643 18.76L51.7137 18.5207C52.3322 18.4331 52.9705 18.3852 53.5934 18.3852H53.6788C55.6586 18.3852 57.475 18.8454 58.653 19.6383C59.5836 20.2789 60.5444 21.2441 60.6276 23.5096L60.6343 23.7415C60.6365 23.8468 60.6402 23.9462 60.6402 24.0324C60.6254 25.5962 60.4612 26.638 60.1837 27.5024H53.17V25.164C53.17 24.3394 52.5015 23.6709 51.6776 23.6709H44.0072C43.1826 23.6709 42.5141 24.3394 42.5141 25.164V27.5024H35.4437C35.1662 26.6402 35.002 25.6021 34.9909 24.0463L34.9961 23.8211ZM45.5011 26.6557H50.1815V31.3376H45.5011V26.6557ZM6.35764 24.0441L6.36132 23.8166C6.36426 23.7077 6.36647 23.5943 6.36574 23.531C6.44672 21.2419 7.40828 20.2774 8.32788 19.6442C9.21434 19.0449 10.4461 18.637 11.8921 18.4618L14.4691 18.4316C15.8201 18.545 17.1159 18.8469 18.0414 19.2658L18.5163 19.4778L22.1299 21.3973C22.353 21.5158 22.593 21.571 22.8293 21.571C23.3639 21.571 23.8807 21.2824 24.1487 20.7788C24.5353 20.0499 24.2577 19.145 23.5303 18.7592L23.0782 18.5192C23.6966 18.4309 24.3357 18.383 24.9586 18.383H25.0447C27.0238 18.383 28.8424 18.8432 30.0189 19.6361C30.9488 20.2767 31.9097 21.2419 31.9936 23.5081L32.0002 23.7658C32.0039 23.852 32.0076 23.933 32.0083 24.0044C32.0083 24.0221 32.0076 24.0382 32.0076 24.0559C32.0076 24.0625 32.0076 24.0692 32.0076 24.0758C31.9907 25.6146 31.8257 26.6454 31.5504 27.5009H24.5367V25.1625C24.5367 24.3379 23.8682 23.6694 23.0443 23.6694H15.3747C14.55 23.6694 13.8815 24.3379 13.8815 25.1625V27.5009H6.8097C6.53213 26.6387 6.36868 25.6013 6.35764 24.0441ZM21.5497 31.3376H16.8678V26.6557H21.549V31.3376H21.5497ZM25.4961 50.1093V48.6155C25.4968 48.6155 25.4968 48.6155 25.4976 48.6155L25.4961 50.1093ZM27.9633 39.0492C27.9662 44.2494 27.0106 46.6349 26.4436 47.5876C25.9423 48.4211 25.7523 48.5853 25.739 48.6007C25.7346 48.603 25.7008 48.611 25.6006 48.614C25.5476 48.5301 25.3893 48.198 25.4659 47.3219C25.6853 44.823 25.3613 41.889 24.5647 39.2237C24.5183 39.0809 23.3513 35.725 19.2511 35.5402C15.6802 35.373 14.1112 37.9757 13.7806 39.2701C12.9973 41.9022 12.9582 44.3532 12.9266 46.3235C12.9133 47.1047 12.9038 47.7791 12.8449 48.371C12.8397 48.4483 12.808 48.5477 12.7771 48.6147C12.6888 48.6125 12.6372 48.6081 12.607 48.6044C12.5246 48.5256 12.3361 48.2893 11.9172 47.5943C11.3466 46.6334 10.3894 44.2465 10.3953 39.058C10.4262 34.893 9.35717 32.414 8.28002 30.4864H13.8808V32.83C13.8808 33.6546 14.5493 34.3231 15.3739 34.3231H23.0421C23.866 34.3231 24.5345 33.6546 24.5345 32.83V30.4864H30.0801C28.9963 32.4324 27.9368 34.907 27.9633 39.0492ZM54.1301 50.1093V48.6155C54.1301 48.6155 54.1308 48.6155 54.1316 48.6155L54.1301 50.1093ZM56.5981 39.0499C56.6017 44.2479 55.6439 46.6349 55.0762 47.5906C54.577 48.4211 54.3871 48.5868 54.3745 48.6015C54.3701 48.6037 54.3363 48.611 54.2361 48.6147C54.1824 48.5301 54.0256 48.1973 54.1021 47.3211C54.3186 44.8186 53.9946 41.8831 53.2002 39.2244C53.1524 39.0823 51.9861 35.7257 47.8844 35.5409C44.3113 35.3738 42.746 37.9765 42.4139 39.2715C41.6342 41.9022 41.5938 44.3525 41.5621 46.322C41.5503 47.1039 41.54 47.7783 41.4811 48.3681C41.4752 48.4454 41.4436 48.5477 41.4112 48.6147C41.3243 48.6125 41.272 48.6081 41.2425 48.6044C41.1498 48.5168 40.9561 48.265 40.5527 47.595C39.9843 46.6349 39.0279 44.2487 39.0316 39.0595C39.0632 34.8959 37.9942 32.4155 36.9155 30.4864H42.5141V32.83C42.5141 33.6546 43.1826 34.3231 44.0072 34.3231H51.6761C52.5 34.3231 53.1685 33.6546 53.1685 32.83V30.4864H58.7134C57.6303 32.4361 56.5701 34.9136 56.5981 39.0499Z" fill="#3B6A75"/>
<path d="M11.1375 20.0139C9.86962 20.4033 8.91321 21.5121 8.576 22.9744C8.41181 23.6893 8.85725 24.402 9.5729 24.5662C9.67377 24.589 9.77243 24.6 9.87109 24.6C10.4756 24.6 11.0219 24.1855 11.164 23.5707C11.2862 23.0399 11.5704 22.6592 11.9223 22.5488C12.6225 22.3323 13.0142 21.5887 12.7977 20.8885C12.5813 20.1876 11.8369 19.7952 11.1375 20.0139Z" fill="white"/>
<path d="M41.7241 20.8885C41.5083 20.1876 40.7596 19.7967 40.0631 20.0139C38.7967 20.4041 37.8395 21.5114 37.5016 22.9744C37.3374 23.6893 37.7821 24.402 38.4985 24.5669C38.5979 24.5897 38.698 24.6008 38.7967 24.6008C39.4012 24.6008 39.9475 24.1863 40.0903 23.5722C40.2125 23.0406 40.496 22.66 40.8486 22.5495C41.5503 22.3324 41.942 21.5887 41.7241 20.8885Z" fill="white"/>
</svg>
