<svg width="67" height="67" viewBox="0 0 67 67" fill="none" xmlns="http://www.w3.org/2000/svg">
<path d="M60.6468 14.4875C60.4649 9.64287 58.5757 6.86274 55.6755 4.86157C52.7599 2.89133 48.6368 1.96658 44.5476 1.97984C40.7574 1.96658 37.0289 2.76764 34.5094 3.90222L33.4956 4.35134L32.4876 3.90222C30.471 2.98337 27.6482 2.30453 24.6545 2.06304L19.4896 2.13372C16.4452 2.47829 13.534 3.36696 11.3223 4.86673C8.42212 6.86274 6.52845 9.65023 6.34733 14.4831C6.33997 14.8726 6.33187 15.2311 6.33187 15.5558C6.38635 22.3817 7.95386 24.8467 9.849 28.291C11.8075 31.6792 14.0509 36.01 13.9897 44.0286C13.9897 53.3342 15.5639 58.7973 17.2808 61.6842C19.028 64.5888 19.6119 65.0217 21.5144 65.0217C23.5236 65.0217 24.2187 62.994 24.3077 61.9213C24.6913 57.9823 24.0169 51.8234 25.9614 45.253C26.5217 43.4322 27.2042 41.1586 28.5663 39.1023C30.3996 36.3339 35.3642 34.1671 38.4293 39.1023C39.7303 41.2036 40.4724 43.4322 41.0254 45.253C42.5163 50.2574 42.9485 55.4885 42.601 59.485C42.115 65.0401 45.3708 65.0217 45.4753 65.0217C47.2085 65.0217 47.9617 64.5888 49.7022 61.6842C51.4221 58.7966 52.9999 53.3335 52.9992 44.0286C52.9447 35.993 55.1889 31.6792 57.1473 28.2858C59.0484 24.8445 60.5938 22.3817 60.6586 15.5565C60.6615 15.2201 60.6519 14.8659 60.6468 14.4875Z" fill="#F4F2E8"/>
<path d="M45.4797 65.772H45.4761C45.2463 65.772 44.0492 65.7175 43.0692 64.6477C42.0569 63.5448 41.6482 61.7844 41.8566 59.4202C42.2328 55.1116 41.6688 50.027 40.3097 45.4673C39.72 43.5258 39.0065 41.4569 37.7946 39.4999C36.7425 37.8057 35.3554 36.9097 33.7857 36.9097C31.8176 36.9097 30.027 38.2629 29.1943 39.5183C27.9213 41.4377 27.2543 43.6067 26.7197 45.3495L26.6815 45.4746C25.3422 50.0012 25.2737 54.3901 25.2185 57.9175C25.1957 59.4018 25.1736 60.8022 25.0573 61.9942C24.9071 63.8076 23.7342 65.772 21.5166 65.772C19.1782 65.772 18.4191 65.0269 16.6403 62.0708C15.0897 59.4622 13.2432 54.2178 13.2432 44.0279C13.3013 36.4009 11.2788 32.2572 9.2033 28.6657L8.90511 28.1275C7.15207 24.9601 5.63831 22.2249 5.5853 15.5625C5.5853 15.2547 5.59119 14.9241 5.59781 14.5663L5.60002 14.4698C5.77231 9.86083 7.45614 6.61906 10.8996 4.24903C13.0989 2.7581 16.0388 1.77003 19.4086 1.38865L19.483 1.38423L24.6472 1.31355C27.7321 1.55946 30.6786 2.25228 32.8013 3.22047L33.4985 3.53117L34.2083 3.21679C36.9693 1.97398 40.803 1.22961 44.4593 1.22961L44.6345 1.23035C49.1537 1.23035 53.2245 2.29867 56.0974 4.24093C59.5439 6.61833 61.2262 9.86378 61.3978 14.4603L61.4051 14.8586C61.4095 15.1001 61.4132 15.3327 61.4132 15.5551C61.3499 22.2654 59.9009 24.8762 58.0676 28.1805L57.8077 28.6473C55.7249 32.2558 53.7016 36.4076 53.7531 44.0227C53.7568 54.2126 51.9051 59.4585 50.3516 62.0671C48.5669 65.0445 47.6105 65.772 45.4797 65.772ZM33.7864 35.4099C35.2626 35.4099 37.3772 35.982 39.0713 38.7084C40.3752 40.8104 41.1277 42.9905 41.7484 45.0344C43.1605 49.7715 43.7444 55.0601 43.3527 59.5498C43.1863 61.4508 43.4712 62.863 44.1773 63.6339C44.7545 64.2634 45.4496 64.2707 45.4783 64.2707V65.0217L45.4797 64.2707C46.8197 64.2707 47.369 64.1271 49.0646 61.2984C50.2566 59.2965 52.2571 54.3901 52.2541 44.0279C52.1996 36.0409 54.3237 31.6859 56.5031 27.9096L56.7564 27.4524C58.4873 24.3343 59.8538 21.8708 59.9142 15.5477C59.9142 15.3401 59.9098 15.117 59.9054 14.8844L59.8987 14.4986C59.7434 10.377 58.3113 7.58946 55.2514 5.48006C52.6672 3.73512 48.7951 2.73159 44.6338 2.73159H44.4585C41.0047 2.73159 37.4007 3.42442 34.8186 4.58771L33.4963 5.17304L32.1843 4.58919C30.2074 3.68873 27.4442 3.0423 24.5956 2.81258L19.5397 2.88547C16.4268 3.23961 13.7313 4.14006 11.7456 5.48743C8.68865 7.5902 7.25293 10.3755 7.09832 14.5111L7.09758 14.5928C7.09096 14.9411 7.08433 15.2613 7.08433 15.5558C7.13366 21.8317 8.49501 24.2887 10.2171 27.4001L10.5087 27.9295C12.6807 31.6874 14.8033 36.0357 14.7422 44.0345C14.7422 54.3967 16.739 59.3002 17.928 61.3021C19.6553 64.1721 20.0293 64.2729 21.5166 64.2729C23.3418 64.2729 23.5597 61.8845 23.5619 61.8602C23.6731 60.7182 23.6937 59.4099 23.7173 57.8954C23.7732 54.2759 23.8439 49.7737 25.2443 45.041L25.2848 44.9099C25.8487 43.0752 26.5511 40.7898 27.9427 38.6907C29.025 37.0577 31.2507 35.4099 33.7864 35.4099Z" fill="#F4F2E8"/>
<path d="M62.3424 14.8563L62.335 14.4242C62.1502 9.50665 60.339 6.02633 56.6216 3.46266C53.5956 1.41732 49.3378 0.2901 44.6345 0.2901L44.5557 0.290836L44.4593 0.2901C40.6771 0.2901 36.6983 1.06539 33.8269 2.359L33.5 2.50331L33.19 2.36489C30.9739 1.35474 27.9125 0.63099 24.7937 0.379188C24.7399 0.37477 24.6862 0.374034 24.6346 0.374034L19.4705 0.444715C19.4145 0.445452 19.3586 0.449869 19.3034 0.455759C15.7848 0.853342 12.6983 1.89515 10.3673 3.47518C6.66024 6.02707 4.8483 9.50371 4.66276 14.4507C4.6554 14.8512 4.64877 15.2201 4.64877 15.5676C4.70178 22.47 6.26929 25.3025 8.08418 28.581L8.3912 29.1354C10.4019 32.6135 12.3619 36.6277 12.3052 44.0278C12.3052 54.4305 14.2239 59.8391 15.837 62.5537C17.6136 65.5076 18.6245 66.7099 21.5173 66.7099C24.2017 66.7099 25.8002 64.3715 25.9901 62.0854C26.1101 60.8559 26.1329 59.4364 26.1558 57.9322C26.211 54.4622 26.278 50.144 27.579 45.7492L27.6173 45.6255C28.1621 43.8526 28.7798 41.8433 29.9777 40.0358C30.6985 38.9469 32.238 37.8469 33.7879 37.8469C35.0351 37.8469 36.1159 38.5685 36.9995 39.9924C38.1532 41.8559 38.8438 43.8578 39.4137 45.7345C40.7191 50.119 41.2838 55.2036 40.9245 59.3385C40.6933 61.9757 41.1836 63.9762 42.3801 65.2816C43.5934 66.6061 45.0593 66.7085 45.4783 66.7085H45.482C48.2223 66.7085 49.3989 65.4833 51.1578 62.5486C52.7717 59.8376 54.6956 54.4268 54.6919 44.0168C54.6425 36.6358 56.6025 32.6143 58.6301 29.1008L58.8878 28.6355C60.7116 25.3503 62.2857 22.5135 62.352 15.5551C62.3512 15.3312 62.3475 15.0978 62.3424 14.8563ZM48.2599 60.8169C46.7572 63.3246 46.4339 63.3349 45.4908 63.3349C45.4356 63.3305 45.1212 63.2944 44.8451 62.9771C44.5557 62.645 44.0993 61.7674 44.2863 59.6337C44.6861 55.0291 44.0897 49.6139 42.6451 44.7634C42.0053 42.6584 41.2263 40.4091 39.8672 38.2143C38.3696 35.803 36.2094 34.4726 33.7864 34.4726C30.9025 34.4726 28.3815 36.3302 27.1622 38.1723C25.6956 40.3841 24.9711 42.7409 24.3887 44.6331L24.3446 44.7737C22.9096 49.6286 22.8367 54.203 22.78 57.8784C22.7572 59.3723 22.7351 60.6637 22.6283 61.7814C22.6261 61.7961 22.4715 63.3327 21.5158 63.3327C20.3901 63.3327 20.245 63.3327 18.7342 60.8205C17.593 58.9033 15.6802 54.1713 15.6802 44.0404C15.7141 39.5786 15.0573 36.1756 14.112 33.4028H20.7766C22.1409 33.4389 25.0175 32.6813 25.8797 29.6619C25.9231 29.5117 25.9445 29.3556 25.9445 29.1988V25.8414C25.9445 25.8031 25.94 25.7287 25.9371 25.6905C25.9283 25.5579 25.9504 25.1265 26.1609 24.9019C26.3855 24.6612 26.895 24.6243 27.1806 24.6243H39.8171C40.1021 24.6243 40.6138 24.6612 40.8383 24.9019C41.0482 25.1265 41.0695 25.5565 41.0629 25.6595C41.0563 25.7199 41.0533 25.7803 41.0533 25.8414V29.1988C41.0533 29.3556 41.0747 29.5109 41.1181 29.6619C41.9641 32.6312 44.7391 33.4036 46.121 33.4036C46.1431 33.4036 46.1667 33.4036 46.188 33.4028H52.8932C51.9449 36.18 51.2859 39.5793 51.3161 44.0286C51.319 54.1655 49.4018 58.9011 48.2599 60.8169ZM55.9347 26.9973L55.6895 27.4413C55.2235 28.249 54.7522 29.1053 54.298 30.0285H46.1556C46.1137 30.0322 44.8701 30.0359 44.4276 28.9271V25.9055C44.4571 25.4394 44.4593 23.8837 43.3571 22.6556C42.7821 22.0143 41.7005 21.2515 39.8164 21.2515H27.1806C25.2988 21.2515 24.2179 22.0136 23.6429 22.6541C22.5392 23.8829 22.5407 25.4401 22.5694 25.9047V28.9263C22.1549 29.9586 21.0454 30.0256 20.8075 30.0285H12.7072C12.2581 29.1163 11.792 28.2718 11.3318 27.4766L11.0395 26.9451C9.31742 23.8336 8.0724 21.5851 8.02454 15.5543C8.02454 15.2385 8.03116 14.8917 8.03779 14.5449C8.1821 10.6832 9.45215 8.2042 12.272 6.26267C14.1252 5.00661 16.6587 4.16285 19.6008 3.82048L24.5993 3.75128C27.3154 3.97804 29.9328 4.59135 31.8029 5.44395L32.7542 5.8673L39.6331 9.51401C39.8849 9.64801 40.1551 9.71133 40.4216 9.71133C41.0261 9.71133 41.6114 9.3859 41.914 8.81309C42.3506 7.98921 42.037 6.96801 41.2131 6.53141L37.5774 4.60387C39.6787 4.01412 42.1327 3.66661 44.4585 3.66661H44.6338C48.6118 3.66661 52.2917 4.61123 54.7176 6.25015C57.5464 8.20199 58.815 10.6847 58.96 14.5103L58.9666 14.9197C58.971 15.1398 58.9755 15.3511 58.9755 15.5396C58.9166 21.6241 57.6664 23.8778 55.9347 26.9973Z" fill="#3B6A75"/>
<path d="M53.1862 20.0448C53.0802 20.0448 52.9749 20.0337 52.8674 20.0109C52.0568 19.8364 51.5421 19.0376 51.7166 18.2277C52.9285 12.6129 48.1693 10.48 47.9654 10.3909C47.2085 10.0633 46.8536 9.18195 47.1783 8.42287C47.5023 7.66451 48.3769 7.30964 49.1353 7.62697C51.6526 8.68571 56.0451 12.3943 54.6492 18.8601C54.5004 19.5647 53.8783 20.0448 53.1862 20.0448Z" fill="white"/>
</svg>
